<?xml version="1.0" encoding="UTF-8" standalone="no"?>
<!-- Created with Inkscape (http://www.inkscape.org/) -->

<svg
   xmlns:dc="http://purl.org/dc/elements/1.1/"
   xmlns:cc="http://creativecommons.org/ns#"
   xmlns:rdf="http://www.w3.org/1999/02/22-rdf-syntax-ns#"
   xmlns:svg="http://www.w3.org/2000/svg"
   xmlns="http://www.w3.org/2000/svg"
   xmlns:xlink="http://www.w3.org/1999/xlink"
   xmlns:sodipodi="http://sodipodi.sourceforge.net/DTD/sodipodi-0.dtd"
   xmlns:inkscape="http://www.inkscape.org/namespaces/inkscape"
   width="744.09448"
   height="524.40942"
   id="svg2"
   version="1.1"
   inkscape:version="0.47 r22583"
   sodipodi:docname="argument2.svg"
   inkscape:export-filename="/home/vencax/argument2.png"
   inkscape:export-xdpi="90"
   inkscape:export-ydpi="90">
  <defs
     id="defs4">
    <linearGradient
       id="linearGradient3678">
      <stop
         style="stop-color:#f50000;stop-opacity:1;"
         offset="0"
         id="stop3680" />
      <stop
         style="stop-color:#ff0000;stop-opacity:0;"
         offset="1"
         id="stop3682" />
    </linearGradient>
    <linearGradient
       id="linearGradient3998">
      <stop
         style="stop-color:#ffffff;stop-opacity:1;"
         offset="0"
         id="stop4000" />
      <stop
         style="stop-color:#ffffff;stop-opacity:0;"
         offset="1"
         id="stop4002" />
    </linearGradient>
    <linearGradient
       id="linearGradient3868">
      <stop
         style="stop-color:#3a3d8c;stop-opacity:1;"
         offset="0"
         id="stop3870" />
      <stop
         style="stop-color:#3a3d8c;stop-opacity:0;"
         offset="1"
         id="stop3872" />
    </linearGradient>
    <linearGradient
       id="linearGradient3748">
      <stop
         style="stop-color:#4161c4;stop-opacity:1;"
         offset="0"
         id="stop3750" />
      <stop
         style="stop-color:#ffffff;stop-opacity:0;"
         offset="1"
         id="stop3752" />
    </linearGradient>
    <inkscape:perspective
       sodipodi:type="inkscape:persp3d"
       inkscape:vp_x="0 : 526.18109 : 1"
       inkscape:vp_y="0 : 1000 : 0"
       inkscape:vp_z="744.09448 : 526.18109 : 1"
       inkscape:persp3d-origin="372.04724 : 350.78739 : 1"
       id="perspective10" />
    <inkscape:perspective
       id="perspective2884"
       inkscape:persp3d-origin="0.5 : 0.33333333 : 1"
       inkscape:vp_z="1 : 0.5 : 1"
       inkscape:vp_y="0 : 1000 : 0"
       inkscape:vp_x="0 : 0.5 : 1"
       sodipodi:type="inkscape:persp3d" />
    <inkscape:perspective
       sodipodi:type="inkscape:persp3d"
       inkscape:vp_x="0 : 0.5 : 1"
       inkscape:vp_y="0 : 1000 : 0"
       inkscape:vp_z="1 : 0.5 : 1"
       inkscape:persp3d-origin="0.5 : 0.33333333 : 1"
       id="perspective2823" />
    <inkscape:perspective
       sodipodi:type="inkscape:persp3d"
       inkscape:vp_x="0 : 0.5 : 1"
       inkscape:vp_y="0 : 1000 : 0"
       inkscape:vp_z="1 : 0.5 : 1"
       inkscape:persp3d-origin="0.5 : 0.33333333 : 1"
       id="perspective3719" />
    <inkscape:perspective
       sodipodi:type="inkscape:persp3d"
       inkscape:vp_x="0 : 0.5 : 1"
       inkscape:vp_y="0 : 1000 : 0"
       inkscape:vp_z="1 : 0.5 : 1"
       inkscape:persp3d-origin="0.5 : 0.33333333 : 1"
       id="perspective2884-9" />
    <inkscape:perspective
       id="perspective10-4"
       inkscape:persp3d-origin="372.04724 : 350.78739 : 1"
       inkscape:vp_z="744.09448 : 526.18109 : 1"
       inkscape:vp_y="0 : 1000 : 0"
       inkscape:vp_x="0 : 526.18109 : 1"
       sodipodi:type="inkscape:persp3d" />
    <inkscape:perspective
       sodipodi:type="inkscape:persp3d"
       inkscape:vp_x="0 : 0.5 : 1"
       inkscape:vp_y="0 : 1000 : 0"
       inkscape:vp_z="1 : 0.5 : 1"
       inkscape:persp3d-origin="0.5 : 0.33333333 : 1"
       id="perspective2823-3" />
    <inkscape:perspective
       sodipodi:type="inkscape:persp3d"
       inkscape:vp_x="0 : 0.5 : 1"
       inkscape:vp_y="0 : 1000 : 0"
       inkscape:vp_z="1 : 0.5 : 1"
       inkscape:persp3d-origin="0.5 : 0.33333333 : 1"
       id="perspective3719-1" />
    <inkscape:perspective
       sodipodi:type="inkscape:persp3d"
       inkscape:vp_x="0 : 0.5 : 1"
       inkscape:vp_y="0 : 1000 : 0"
       inkscape:vp_z="1 : 0.5 : 1"
       inkscape:persp3d-origin="0.5 : 0.33333333 : 1"
       id="perspective2884-91" />
    <inkscape:perspective
       id="perspective10-3"
       inkscape:persp3d-origin="372.04724 : 350.78739 : 1"
       inkscape:vp_z="744.09448 : 526.18109 : 1"
       inkscape:vp_y="0 : 1000 : 0"
       inkscape:vp_x="0 : 526.18109 : 1"
       sodipodi:type="inkscape:persp3d" />
    <inkscape:perspective
       id="perspective3898"
       inkscape:persp3d-origin="0.5 : 0.33333333 : 1"
       inkscape:vp_z="1 : 0.5 : 1"
       inkscape:vp_y="0 : 1000 : 0"
       inkscape:vp_x="0 : 0.5 : 1"
       sodipodi:type="inkscape:persp3d" />
    <linearGradient
       inkscape:collect="always"
       xlink:href="#linearGradient3678"
       id="linearGradient3684"
       x1="529.10315"
       y1="-373.11456"
       x2="674.94954"
       y2="-373.11456"
       gradientUnits="userSpaceOnUse"
       gradientTransform="matrix(4.114992,0,0,0.22910198,-2176.4923,700.36483)" />
  </defs>
  <sodipodi:namedview
     id="base"
     pagecolor="#ffffff"
     bordercolor="#666666"
     borderopacity="1.0"
     inkscape:pageopacity="0.0"
     inkscape:pageshadow="2"
     inkscape:zoom="0.7"
     inkscape:cx="812.83839"
     inkscape:cy="379.33733"
     inkscape:document-units="px"
     inkscape:current-layer="layer1"
     showgrid="false"
     inkscape:window-width="1440"
     inkscape:window-height="872"
     inkscape:window-x="0"
     inkscape:window-y="0"
     inkscape:window-maximized="1"
     showguides="true"
     inkscape:guide-bbox="true" />
  <metadata
     id="metadata7">
    <rdf:RDF>
      <cc:Work
         rdf:about="">
        <dc:format>image/svg+xml</dc:format>
        <dc:type
           rdf:resource="http://purl.org/dc/dcmitype/StillImage" />
        <dc:title />
      </cc:Work>
    </rdf:RDF>
  </metadata>
  <g
     inkscape:label="Layer 1"
     inkscape:groupmode="layer"
     id="layer1"
     transform="translate(0,-527.95273)">
    <rect
       style="fill:url(#linearGradient3684);fill-opacity:1;fill-rule:evenodd;stroke:none"
       id="rect3866"
       width="600.15674"
       height="170.67107"
       x="0.76277375"
       y="529.54803" />
    <text
       xml:space="preserve"
       style="font-size:32px;font-style:normal;font-variant:normal;font-weight:bold;font-stretch:normal;text-align:start;line-height:100%;letter-spacing:0px;word-spacing:0px;writing-mode:lr-tb;text-anchor:start;fill:#000000;fill-opacity:1;stroke:none;font-family:FreeSans;-inkscape-font-specification:FreeSans Bold"
       x="2.1428571"
       y="567.36218"
       id="text3742"
       sodipodi:linespacing="100%"><tspan
         sodipodi:role="line"
         id="tspan3744"
         x="2.1428571"
         y="567.36218" /></text>
    <g
       id="g3801"
       transform="matrix(0.45471199,0,0,0.45471199,538.64259,432.78812)">
      <path
         sodipodi:nodetypes="cscscccccsscccsscccccssccccsssssssscccssssscccssssccccccccccssssssssssscsscccs"
         id="path2900"
         d="m 270.0625,263.0625 c -69.86402,0 -126.5,56.63598 -126.5,126.5 0,2.9779 0.11007,5.94853 0.3125,8.875 5.41123,-4.89719 8.97959,-6.69496 23.34375,-12.46875 14.54106,-5.8449 17.95858,-7.93582 27.65625,-16.9375 l 8,-7.4375 0.5,-7.875 0.5,-7.90625 4.25,-0.3125 c 3.04144,-0.22013 4.56498,-0.88861 5.34375,-2.34375 2.22774,-4.16257 8.16328,-9.77378 11.5,-10.875 2.93823,-0.9697 4.05915,-0.81895 7.6875,0.9375 l 4.25,2.0625 4.90625,-2.5 c 6.40419,-3.24221 9.46999,-3.11842 14.0625,0.53125 2.07626,1.65 4.86877,3 6.1875,3 3.59305,0 6.80618,2.58203 8.8125,7.03125 l 1.8125,3.96875 9.09375,0 9.09375,0 8,-10.625 c 9.58342,-12.73956 17.30546,-19.9825 26.4375,-24.78125 8.75293,-4.59954 22.94219,-8.40921 35.5625,-9.5625 0.20053,-0.0183 0.49399,-0.0703 0.71875,-0.0937 -23.03542,-24.12757 -55.53925,-39.1875 -91.53125,-39.1875 l 0,-5e-5 z m -53.65625,88.78125 c -5.07919,0.0947 -6.21302,0.48037 -6.78125,1.21875 -0.91895,1.19412 -1.25,7.90045 -1.25,25.28125 0,13.00322 0.27769,23.93393 0.625,24.28125 0.90954,0.90954 4.02425,-0.98373 4.75,-2.875 0.33971,-0.88526 0.625,-11.26522 0.625,-23.0625 0,-16.3423 0.2888,-21.5374 1.25,-21.90625 0.69388,-0.26626 20.53169,-0.13978 44.0625,0.28125 23.53082,0.42102 43.53094,0.46557 44.46875,0.125 2.37895,-0.86396 -15.23352,-1.7261 -57.28125,-2.8125 -16.36501,-0.42282 -25.38956,-0.6259 -30.46875,-0.53125 z m 3.46875,7.96875 -0.28125,17.75 c -0.18416,11.96991 0.0689,17.75 0.78125,17.75 0.58097,0 3.1948,-1.07976 5.8125,-2.40625 7.00303,-3.54871 15.93223,-5.89996 19.9375,-5.25 15.23372,2.4721 12.48075,18.98766 -5.1875,31.15625 -4.78102,3.29281 -6.3512,4.95516 -5.3125,5.65625 0.42262,0.28526 70.50117,1.47121 83.25,1.40625 l 12,-0.0625 0.28125,-21.5 c 0.29966,-22.05444 -0.0953,-28 -1.90625,-28 -0.56979,0 -4.72595,2.6418 -9.21875,5.875 -10.21719,7.35269 -11.39325,7.97432 -18.125,9.21875 -11.00712,2.03478 -16.98194,-1.90253 -16.84375,-11.0625 0.0857,-5.6839 1.2197,-7.9454 7,-14.125 l 4.40625,-4.71875 -4.8125,-0.53125 c -2.63641,-0.30603 -19.85625,-0.71362 -38.28125,-0.875 l -33.5,-0.28125 z m 176.34375,20.75 c -6.83827,5.69909 -12.02682,8.16539 -24.6875,12.625 -13.043,4.59428 -19.83854,8.89901 -28.71875,18.3125 l -6.6875,7.125 0.59375,5.6875 c 0.70082,6.70506 -0.18066,8 -5.4375,8 -3.34471,0 -3.97691,0.44839 -6.40625,4.59375 -4.26154,7.27177 -13.60252,10.57885 -18.5625,6.5625 -2.25647,-1.82717 -2.36479,-1.81179 -6.53125,1.125 -6.0315,4.2514 -11.61285,4.30061 -15.34375,0.125 -1.78927,-2.00254 -4.09391,-3.31816 -6.5625,-3.71875 -4.25291,-0.69016 -8.05058,-3.71576 -8.90625,-7.125 -0.47159,-1.87897 -1.44162,-2.38126 -5.8125,-2.90625 -12.07713,-1.45056 -13.1932,-1.17637 -18.03125,4.59375 -2.42107,2.8875 -7.13663,9.09773 -10.5,13.8125 -8.31175,11.65141 -11.97659,14.01279 -33.25,21.375 -7.93441,2.74591 -13.78486,4.13313 -23.4375,5.46875 23.07179,24.52205 55.7984,39.84375 92.125,39.84375 69.86402,0 126.5,-56.63598 126.5,-126.5 0,-3.0308 -0.10287,-6.02253 -0.3125,-9 -0.006,0.005 -0.0253,-0.005 -0.0312,0 l -5e-5,0 z"
         style="fill:#3a3d8c;fill-opacity:1;fill-rule:evenodd;stroke:none" />
      <path
         sodipodi:nodetypes="ccccccccccccccc"
         id="rect3723"
         d="m 207.83888,349.04348 100.7688,4.06169 -16.67361,18.41421 -4.28954,8.95549 3.11279,8.3457 17.52816,-0.96166 24.68011,-17.60135 0.38474,57.32528 -107.31352,-1.71018 22.11838,-15.81194 6.37929,-14.00135 -6.72605,-5.53373 -14.96827,2.20693 -25.93061,12.62824 0.92933,-56.31733 z"
         style="fill:#ffff00;fill-opacity:1;fill-rule:evenodd;stroke:none" />
      <path
         sodipodi:nodetypes="cssssscccsssssssssssssssssssssssssscccccsscccsscccccsssssssscccsssssssssssssscccssssssssscccssssssssssssscccsssccssccsssccssssccccccssssscccccssssssssccssssccssccssccc"
         style="fill:#313133"
         d="m 119.84651,485.26735 c -0.38336,-0.6203 -0.25141,-1.57343 0.29324,-2.11808 1.39103,-1.39103 19.6509,-5.21514 46.88504,-9.819 23.91138,-4.04216 33.18589,-6.57095 46.28417,-12.61987 9.21762,-4.25679 12.26009,-7.08039 21.29165,-19.76002 5.46962,-7.67894 6.72097,-10.05638 5.65011,-10.73469 -0.75653,-0.47919 -5.06464,-0.87816 -9.57358,-0.88658 l -8.19809,-0.0153 -5.96361,4.96297 c -3.27999,2.72963 -8.14085,7.90463 -10.80192,11.49998 -4.50704,6.08946 -8.3383,8.46312 -8.3383,5.16602 0,-1.90603 11.08997,-15.45146 15.80865,-19.3089 2.13945,-1.74896 8.12023,-5.73282 13.29063,-8.85303 13.12704,-7.92185 19.60412,-13.10479 22.45386,-17.9675 4.92586,-8.40535 2.20508,-13.16723 -6.98158,-12.21908 -5.78957,0.59754 -16.64359,5.24208 -21.28455,9.10788 -4.54927,3.78942 -17.75544,10.61166 -20.54155,10.61166 -1.42116,0 -5.42537,-0.72795 -8.89825,-1.61766 -7.93546,-2.03296 -17.83981,-1.45365 -23.34721,1.3656 -2.2,1.12618 -9.34676,5.4686 -15.8817,9.64983 -6.53493,4.18123 -12.72243,7.60223 -13.75,7.60223 -2.9365,0 -2.1848,-2.91929 1.23507,-4.79651 1.70686,-0.93692 8.09319,-4.9742 14.19186,-8.97172 6.09866,-3.99753 13.33382,-7.93503 16.07813,-8.75 6.52327,-1.93721 15.19682,-1.87849 23.64278,0.16005 9.39937,2.26867 9.98287,1.89711 9.98841,-6.36044 0.003,-3.72976 0.29557,-11.83188 0.65126,-18.00472 0.82384,-14.29721 7.9e-4,-14.95163 -8.68761,-6.9077 -7.65295,7.08528 -11.84719,9.5163 -26.9682,15.63104 -14.62419,5.91383 -18.95097,8.35824 -27.23607,15.38699 -8.47099,7.18646 -16.23282,12.03353 -25.88656,16.1655 -8.94836,3.83006 -12.20206,4.3387 -11.70069,1.82914 0.19079,-0.95501 3.96818,-3.18804 9.21538,-5.44775 10.83368,-4.66553 21.11116,-11.3667 29.10794,-18.97909 6.73387,-6.41018 9.28008,-7.84744 25.33491,-14.30081 14.54106,-5.8449 17.96742,-7.9436 27.66509,-16.94528 l 8,-7.42585 0.5,-7.89142 0.5,-7.89143 4.24547,-0.30728 c 3.04144,-0.22013 4.55376,-0.88333 5.33253,-2.33847 2.22774,-4.16257 8.16556,-9.77953 11.50228,-10.88075 2.93823,-0.9697 4.07828,-0.83311 7.70663,0.92334 l 4.25827,2.0614 4.89689,-2.47912 c 6.40419,-3.24221 9.46542,-3.12879 14.05793,0.52088 2.07626,1.65 4.85396,3 6.17269,3 3.59305,0 6.83091,2.57278 8.83723,7.022 l 1.79383,3.978 9.10427,0 9.10427,0 7.99386,-10.62649 c 9.58342,-12.73956 17.30522,-19.97568 26.43726,-24.77443 8.75293,-4.59954 22.93628,-8.41714 35.55659,-9.57043 5.5,-0.50261 20.32324,-2.96893 32.94053,-5.48071 21.53954,-4.28797 25.9486,-4.60462 24.17584,-1.73623 -0.76178,1.23259 -9.16355,3.08872 -37.11637,8.19977 -46.00859,8.41247 -53.26268,10.9364 -65.84218,22.90865 -6.77016,6.44335 -16.65782,19.20836 -16.65782,21.50533 0,1.21667 1.2667,1.52911 7.44672,1.56969 0.51025,0.003 1.054,0.005 1.63329,0.005 l 9.08001,0 8.82772,-7.4896 c 4.85525,-4.11928 10.25706,-9.29428 12.00402,-11.5 3.44952,-4.35537 6.00824,-5.1979 6.00824,-1.97837 0,3.17309 -14.18731,16.69431 -27,25.73235 -6.325,4.46165 -14.0693,9.92213 -17.20956,12.13441 -8.88367,6.25847 -12.64991,15.98495 -7.56793,19.54451 2.80654,1.96577 9.77174,2.00377 14.3797,0.0784 1.94589,-0.81304 7.21894,-4.25667 11.71788,-7.6525 8.79935,-6.6418 18.72672,-11.86718 22.54812,-11.86845 1.30252,-4.3e-4 6.11958,0.77139 10.70459,1.71517 7.00442,1.44179 9.24261,1.52588 14.00814,0.5263 6.1244,-1.28461 25.30048,-11.79486 32.51075,-17.81887 4.44617,-3.71466 5.40631,-4.04467 6.52088,-2.24125 1.52525,2.4679 -18.80779,16.6211 -31.11257,21.6565 -7.10705,2.90837 -16.71058,3.36798 -26.28574,1.25802 -4.77421,-1.05204 -6.87833,-1.11512 -8.75,-0.26233 l -2.46426,1.12283 0,17.96242 c 0,11.60637 0.37616,18.19491 1.06304,18.61942 0.58467,0.36135 3.84717,-2.00807 7.25,-5.26537 7.88266,-7.54554 13.08081,-10.5431 25.87831,-14.92297 14.13785,-4.8386 20.02776,-8.1789 29.8698,-16.93985 9.47334,-8.43275 19.21351,-14.59309 29.83197,-18.86774 5.47364,-2.20352 7.44177,-2.60814 8.33612,-1.71379 1.68948,1.68948 0.24009,2.80283 -8.71912,6.69755 -11.53824,5.01587 -17.73077,9.10304 -27.56369,18.19246 -9.9567,9.20385 -14.20872,11.65004 -29.79109,17.13879 -13.043,4.59428 -19.82297,8.92633 -28.70318,18.33982 l -6.70513,7.10779 0.59368,5.67998 c 0.70082,6.70506 -0.18885,8.01437 -5.44569,8.01437 -3.34471,0 -3.96665,0.44651 -6.39599,4.59187 -4.26154,7.27177 -13.60665,10.57082 -18.56663,6.55447 -2.25647,-1.82717 -2.34955,-1.81109 -6.51601,1.1257 -6.0315,4.2514 -11.6272,4.29483 -15.3581,0.11922 -1.78927,-2.00254 -4.07988,-3.29536 -6.54847,-3.69595 -4.25291,-0.69016 -8.05315,-3.73967 -8.90882,-7.14891 -0.47159,-1.87897 -1.46372,-2.37149 -5.8346,-2.89648 -12.07713,-1.45056 -13.17565,-1.17004 -18.0137,4.60008 -2.42107,2.8875 -7.1538,9.10754 -10.51717,13.82231 -8.31175,11.65141 -11.96212,13.99741 -33.23553,21.35962 -9.96279,3.44788 -16.51725,4.80085 -31.62425,6.52789 -7.95818,0.90978 -42.92985,7.2553 -47.54159,8.6263 -0.91622,0.27238 -1.97951,-0.0123 -2.36287,-0.63257 l 0,-1e-5 z M 297.17598,440.2848 c 2.78248,-2.59228 5.45992,-7.7402 4.68109,-9.00037 -0.85965,-1.39094 -11.85136,-1.20112 -13.28185,0.22937 -1.2649,1.2649 -1.67174,8.99493 -0.53333,10.13333 1.42213,1.42214 7.04558,0.58341 9.13409,-1.36233 z m 22.00038,-3.62386 c 3.5106,-3.93232 2.56318,-5.79075 -3.13783,-6.1551 -7.20941,-0.46076 -9.61113,2.58205 -6.0505,7.66555 2.01913,2.88273 5.8248,2.25712 9.18833,-1.51045 z m -37.00114,-1.54714 c 0.66,-0.66 1.2,-2.01 1.2,-3 0,-1.46667 -0.83333,-1.8 -4.5,-1.8 -3.79512,0 -4.5,0.3055 -4.5,1.95031 0,3.34031 5.35351,5.29618 7.8,2.84969 z m 48.99212,-30.8 c 0.29966,-22.05444 -0.10776,-28 -1.91871,-28 -0.56979,0 -4.71189,2.64534 -9.20469,5.87854 -10.21719,7.35269 -11.40673,7.95607 -18.13848,9.2005 -11.00712,2.03478 -16.97558,-1.87788 -16.83739,-11.03785 0.0857,-5.6839 1.20615,-7.94982 6.98645,-14.12942 l 4.40765,-4.71214 -4.79348,-0.55641 c -2.63641,-0.30603 -19.86847,-0.68844 -38.29347,-0.84982 l -33.5,-0.2934 -0.27307,17.75 c -0.18416,11.96991 0.0709,17.75 0.78324,17.75 0.58097,0 3.19808,-1.08531 5.81578,-2.4118 7.00303,-3.54871 15.90675,-5.89326 19.91202,-5.2433 15.23372,2.4721 12.48668,18.99211 -5.18157,31.1607 -4.78102,3.29281 -6.3451,4.96205 -5.3064,5.66314 0.42262,0.28526 70.50117,1.45736 83.25,1.3924 l 12,-0.0611 0.29212,-21.5 0,-4e-5 z m -117.40977,-4.55401 c 0.33971,-0.88526 0.61765,-11.26188 0.61765,-23.05916 0,-16.3423 0.30039,-21.56487 1.26159,-21.93372 0.69388,-0.26626 20.51408,-0.13964 44.04489,0.28139 23.53082,0.42102 43.5506,0.48684 44.48841,0.14627 2.37895,-0.86396 -15.24716,-1.73056 -57.29489,-2.81696 -32.73003,-0.84565 -36.11354,-0.7826 -37.25,0.69415 -0.91895,1.19412 -1.25,7.8857 -1.25,25.2665 0,13.00322 0.28417,23.92637 0.63148,24.27369 0.90954,0.90954 4.02512,-0.96089 4.75087,-2.85216 z m 38.64969,-54.69599 c 2.51943,-4.08868 2.18095,-6.78435 -1.08097,-8.60891 -2.25124,-1.25924 -2.97933,-1.22152 -6.23424,0.32304 -4.01438,1.90495 -8.24937,7.70571 -7.34546,10.06125 0.41232,1.0745 2.2064,1.47462 6.61194,1.47462 5.74376,0 6.14623,-0.16251 8.04873,-3.25 z m 13.49514,2.20602 c 0.95815,-1.55031 -2.29304,-5.95602 -4.39525,-5.95602 -2.4284,0 -5.52441,3.53483 -4.7846,5.46275 0.68288,1.77954 8.13733,2.1801 9.17985,0.49327 z m -33.52718,-4.34903 c 0,-4.61104 -0.96051,-5.60699 -5.40747,-5.60699 -3.18954,0 -9.622,7.63719 -7.89068,9.36852 0.34732,0.34731 3.48148,0.63148 6.96482,0.63148 l 6.33333,0 0,-4.39301 z"
         id="path2892" />
      <path
         transform="matrix(0.92572109,0.62855356,-0.62241821,0.93698229,337.64816,-6.7983624)"
         d="m 60.693213,335.1774 -8.881598,-3.72834 -6.151054,7.31703 0.84562,-9.50501 -8.915414,-3.65973 9.364784,-2.18072 0.662066,-9.61472 5.044613,8.22412 9.260645,-2.2162 -6.243754,7.24445 5.014092,8.11912 z"
         inkscape:randomized="0.004"
         inkscape:rounded="0"
         inkscape:flatsided="false"
         sodipodi:arg2="1.3369448"
         sodipodi:arg1="0.70862627"
         sodipodi:r2="4.9522123"
         sodipodi:r1="13.170778"
         sodipodi:cy="326.64789"
         sodipodi:cx="50.714287"
         sodipodi:sides="5"
         id="path3674"
         style="fill:#ffff00;fill-opacity:1;fill-rule:evenodd;stroke:none"
         sodipodi:type="star" />
      <path
         sodipodi:type="star"
         style="fill:#ffff00;fill-opacity:1;fill-rule:evenodd;stroke:none"
         id="path3676"
         sodipodi:sides="5"
         sodipodi:cx="50.714287"
         sodipodi:cy="326.64789"
         sodipodi:r1="13.170778"
         sodipodi:r2="4.9522123"
         sodipodi:arg1="0.70862627"
         sodipodi:arg2="1.3369448"
         inkscape:flatsided="false"
         inkscape:rounded="0"
         inkscape:randomized="0.004"
         d="m 60.693213,335.1774 -8.881598,-3.72834 -6.151054,7.31703 0.84562,-9.50501 -8.915414,-3.65973 9.364784,-2.18072 0.662066,-9.61472 5.044613,8.22412 9.260645,-2.2162 -6.243754,7.24445 5.014092,8.11912 z"
         transform="matrix(0.07484902,1.1164393,-1.1215336,0.08661786,569.0524,219.62019)" />
      <path
         transform="matrix(-0.76151995,0.81983319,-0.8318938,-0.75716114,551.17327,490.22651)"
         d="m 60.693213,335.1774 -8.881598,-3.72834 -6.151054,7.31703 0.84562,-9.50501 -8.915414,-3.65973 9.364784,-2.18072 0.662066,-9.61472 5.044613,8.22412 9.260645,-2.2162 -6.243754,7.24445 5.014092,8.11912 z"
         inkscape:randomized="0.004"
         inkscape:rounded="0"
         inkscape:flatsided="false"
         sodipodi:arg2="1.3369448"
         sodipodi:arg1="0.70862627"
         sodipodi:r2="4.9522123"
         sodipodi:r1="13.170778"
         sodipodi:cy="326.64789"
         sodipodi:cx="50.714287"
         sodipodi:sides="5"
         id="path3678"
         style="fill:#ffff00;fill-opacity:1;fill-rule:evenodd;stroke:none"
         sodipodi:type="star" />
      <path
         sodipodi:type="star"
         style="fill:#ffff00;fill-opacity:1;fill-rule:evenodd;stroke:none"
         id="path3680"
         sodipodi:sides="5"
         sodipodi:cx="50.714287"
         sodipodi:cy="326.64789"
         sodipodi:r1="13.170778"
         sodipodi:r2="4.9522123"
         sodipodi:arg1="0.70862627"
         sodipodi:arg2="1.3369448"
         inkscape:flatsided="false"
         inkscape:rounded="0"
         inkscape:randomized="0.004"
         d="m 60.693213,335.1774 -8.881598,-3.72834 -6.151054,7.31703 0.84562,-9.50501 -8.915414,-3.65973 9.364784,-2.18072 0.662066,-9.61472 5.044613,8.22412 9.260645,-2.2162 -6.243754,7.24445 5.014092,8.11912 z"
         transform="matrix(-0.43189228,1.0322345,-1.0420506,-0.4236399,638.87566,366.62449)" />
      <path
         transform="matrix(-1.0941007,0.23448421,-0.24686289,-1.0974511,448.61981,638.27032)"
         d="m 60.693213,335.1774 -8.881598,-3.72834 -6.151054,7.31703 0.84562,-9.50501 -8.915414,-3.65973 9.364784,-2.18072 0.662066,-9.61472 5.044613,8.22412 9.260645,-2.2162 -6.243754,7.24445 5.014092,8.11912 z"
         inkscape:randomized="0.004"
         inkscape:rounded="0"
         inkscape:flatsided="false"
         sodipodi:arg2="1.3369448"
         sodipodi:arg1="0.70862627"
         sodipodi:r2="4.9522123"
         sodipodi:r1="13.170778"
         sodipodi:cy="326.64789"
         sodipodi:cx="50.714287"
         sodipodi:sides="5"
         id="path3682"
         style="fill:#ffff00;fill-opacity:1;fill-rule:evenodd;stroke:none"
         sodipodi:type="star" />
      <path
         sodipodi:type="star"
         style="fill:#ffff00;fill-opacity:1;fill-rule:evenodd;stroke:none"
         id="path3684"
         sodipodi:sides="5"
         sodipodi:cx="50.714287"
         sodipodi:cy="326.64789"
         sodipodi:r1="13.170778"
         sodipodi:r2="4.9522123"
         sodipodi:arg1="0.70862627"
         sodipodi:arg2="1.3369448"
         inkscape:flatsided="false"
         inkscape:rounded="0"
         inkscape:randomized="0.004"
         d="m 60.693213,335.1774 -8.881598,-3.72834 -6.151054,7.31703 0.84562,-9.50501 -8.915414,-3.65973 9.364784,-2.18072 0.662066,-9.61472 5.044613,8.22412 9.260645,-2.2162 -6.243754,7.24445 5.014092,8.11912 z"
         transform="matrix(-0.64104333,0.91711642,-0.92845977,-0.6350612,500.49243,524.88803)" />
      <path
         transform="matrix(-0.7425137,0.83708571,-0.84904316,-0.73787938,534.56096,682.16345)"
         d="m 60.693213,335.1774 -8.881598,-3.72834 -6.151054,7.31703 0.84562,-9.50501 -8.915414,-3.65973 9.364784,-2.18072 0.662066,-9.61472 5.044613,8.22412 9.260645,-2.2162 -6.243754,7.24445 5.014092,8.11912 z"
         inkscape:randomized="0.004"
         inkscape:rounded="0"
         inkscape:flatsided="false"
         sodipodi:arg2="1.3369448"
         sodipodi:arg1="0.70862627"
         sodipodi:r2="4.9522123"
         sodipodi:r1="13.170778"
         sodipodi:cy="326.64789"
         sodipodi:cx="50.714287"
         sodipodi:sides="5"
         id="path3686"
         style="fill:#ffff00;fill-opacity:1;fill-rule:evenodd;stroke:none"
         sodipodi:type="star" />
      <path
         sodipodi:type="star"
         style="fill:#ffff00;fill-opacity:1;fill-rule:evenodd;stroke:none"
         id="path3688"
         sodipodi:sides="5"
         sodipodi:cx="50.714287"
         sodipodi:cy="326.64789"
         sodipodi:r1="13.170778"
         sodipodi:r2="4.9522123"
         sodipodi:arg1="0.70862627"
         sodipodi:arg2="1.3369448"
         inkscape:flatsided="false"
         inkscape:rounded="0"
         inkscape:randomized="0.004"
         d="m 60.693213,335.1774 -8.881598,-3.72834 -6.151054,7.31703 0.84562,-9.50501 -8.915414,-3.65973 9.364784,-2.18072 0.662066,-9.61472 5.044613,8.22412 9.260645,-2.2162 -6.243754,7.24445 5.014092,8.11912 z"
         transform="matrix(-0.98905082,0.5232758,-0.5360991,-0.98890749,481.86077,794.66334)" />
      <path
         transform="matrix(-1.1113653,0.13002418,-0.14203078,-1.1158708,399.45966,853.73889)"
         d="m 60.693213,335.1774 -8.881598,-3.72834 -6.151054,7.31703 0.84562,-9.50501 -8.915414,-3.65973 9.364784,-2.18072 0.662066,-9.61472 5.044613,8.22412 9.260645,-2.2162 -6.243754,7.24445 5.014092,8.11912 z"
         inkscape:randomized="0.004"
         inkscape:rounded="0"
         inkscape:flatsided="false"
         sodipodi:arg2="1.3369448"
         sodipodi:arg1="0.70862627"
         sodipodi:r2="4.9522123"
         sodipodi:r1="13.170778"
         sodipodi:cy="326.64789"
         sodipodi:cx="50.714287"
         sodipodi:sides="5"
         id="path3690"
         style="fill:#ffff00;fill-opacity:1;fill-rule:evenodd;stroke:none"
         sodipodi:type="star" />
      <path
         sodipodi:type="star"
         style="fill:#ffff00;fill-opacity:1;fill-rule:evenodd;stroke:none"
         id="path3692"
         sodipodi:sides="5"
         sodipodi:cx="50.714287"
         sodipodi:cy="326.64789"
         sodipodi:r1="13.170778"
         sodipodi:r2="4.9522123"
         sodipodi:arg1="0.70862627"
         sodipodi:arg2="1.3369448"
         inkscape:flatsided="false"
         inkscape:rounded="0"
         inkscape:randomized="0.004"
         d="m 60.693213,335.1774 -8.881598,-3.72834 -6.151054,7.31703 0.84562,-9.50501 -8.915414,-3.65973 9.364784,-2.18072 0.662066,-9.61472 5.044613,8.22412 9.260645,-2.2162 -6.243754,7.24445 5.014092,8.11912 z"
         transform="matrix(-0.58709211,0.95255548,-0.963535,-0.58046583,677.37811,616.37447)" />
      <path
         transform="matrix(-0.88552056,0.68402662,-0.6966383,-0.8831961,631.97015,704.43939)"
         d="m 60.693213,335.1774 -8.881598,-3.72834 -6.151054,7.31703 0.84562,-9.50501 -8.915414,-3.65973 9.364784,-2.18072 0.662066,-9.61472 5.044613,8.22412 9.260645,-2.2162 -6.243754,7.24445 5.014092,8.11912 z"
         inkscape:randomized="0.004"
         inkscape:rounded="0"
         inkscape:flatsided="false"
         sodipodi:arg2="1.3369448"
         sodipodi:arg1="0.70862627"
         sodipodi:r2="4.9522123"
         sodipodi:r1="13.170778"
         sodipodi:cy="326.64789"
         sodipodi:cx="50.714287"
         sodipodi:sides="5"
         id="path3694"
         style="fill:#ffff00;fill-opacity:1;fill-rule:evenodd;stroke:none"
         sodipodi:type="star" />
      <path
         sodipodi:type="star"
         style="fill:#ffff00;fill-opacity:1;fill-rule:evenodd;stroke:none"
         id="path3696"
         sodipodi:sides="5"
         sodipodi:cx="50.714287"
         sodipodi:cy="326.64789"
         sodipodi:r1="13.170778"
         sodipodi:r2="4.9522123"
         sodipodi:arg1="0.70862627"
         sodipodi:arg2="1.3369448"
         inkscape:flatsided="false"
         inkscape:rounded="0"
         inkscape:randomized="0.004"
         d="m 60.693213,335.1774 -8.881598,-3.72834 -6.151054,7.31703 0.84562,-9.50501 -8.915414,-3.65973 9.364784,-2.18072 0.662066,-9.61472 5.044613,8.22412 9.260645,-2.2162 -6.243754,7.24445 5.014092,8.11912 z"
         transform="matrix(-1.0857425,0.27055913,-0.2830419,-1.0886816,524.54273,757.50354)" />
      <text
         sodipodi:linespacing="80.000001%"
         id="text3731"
         style="font-size:32.98791504px;font-style:normal;font-variant:normal;font-weight:normal;font-stretch:normal;line-height:80.00000119%;letter-spacing:0px;word-spacing:0px;fill:#000000;fill-opacity:1;stroke:none;font-family:Ubuntu;-inkscape-font-specification:Ubuntu"
         xml:space="preserve"><textPath
           style="font-size:32.98791504px;font-style:normal;font-variant:normal;font-weight:bold;font-stretch:normal;text-align:start;line-height:80.00000119%;writing-mode:lr-tb;text-anchor:start;font-family:Oswald;-inkscape-font-specification:Oswald Bold"
           id="textPath3737"
           xlink:href="#path3735">EVROPSKÁ INICIATIVA</textPath></text>
      <path
         transform="matrix(-1.0517976,-0.0206314,0.02017036,-1.0282938,510.19012,794.81713)"
         d="m 361.42857,388.79074 c 0,70.61355 -55.9644,127.85714 -125,127.85714 -69.03559,0 -125,-57.24359 -125,-127.85714 0,-70.61355 55.96441,-127.85714 125,-127.85714 69.0356,0 125,57.24359 125,127.85714 z"
         sodipodi:ry="127.85714"
         sodipodi:rx="125"
         sodipodi:cy="388.79074"
         sodipodi:cx="236.42857"
         id="path3735"
         style="fill:#ffff00;fill-opacity:0;fill-rule:evenodd;stroke:none"
         sodipodi:type="arc" />
      <path
         sodipodi:type="arc"
         style="fill:#ff5a00;fill-opacity:0;fill-rule:evenodd;stroke:none"
         id="path3740"
         sodipodi:cx="236.42857"
         sodipodi:cy="388.79074"
         sodipodi:rx="125"
         sodipodi:ry="127.85714"
         d="m 361.42857,388.79074 c 0,70.61355 -55.9644,127.85714 -125,127.85714 -69.03559,0 -125,-57.24359 -125,-127.85714 0,-70.61355 55.96441,-127.85714 125,-127.85714 69.0356,0 125,57.24359 125,127.85714 z"
         transform="matrix(-0.8967431,0.9537367,0.9324243,0.87670429,119.5692,-175.48264)" />
      <text
         transform="translate(-4.5168143e-6,4.9654975e-6)"
         xml:space="preserve"
         style="font-size:28px;font-style:normal;font-variant:normal;font-weight:bold;font-stretch:normal;text-align:start;line-height:80.00000119%;letter-spacing:0px;word-spacing:0px;writing-mode:lr-tb;text-anchor:start;fill:#000000;fill-opacity:1;stroke:none;font-family:Oswald;-inkscape-font-specification:Oswald Bold"
         id="text3746"
         sodipodi:linespacing="80.000001%"><textPath
           style="font-size:32.98791504px;font-style:normal;font-variant:normal;font-weight:bold;font-stretch:normal;text-align:start;line-height:80.00000119%;writing-mode:lr-tb;text-anchor:start;font-family:Oswald;-inkscape-font-specification:Oswald Bold"
           id="textPath3756"
           xlink:href="#path3740">ZA ZÁKLADNÍ PŘÍJEM</textPath></text>
    </g>
    <text
       xml:space="preserve"
       style="font-size:12px;font-style:normal;font-variant:normal;font-weight:normal;font-stretch:normal;text-align:center;line-height:120.00000477%;letter-spacing:0px;word-spacing:0px;writing-mode:lr-tb;text-anchor:middle;fill:#000000;fill-opacity:1;stroke:none;font-family:Oswald;-inkscape-font-specification:Oswald"
       x="27.396626"
       y="778.59277"
       id="text2892"
       sodipodi:linespacing="120%"><tspan
         sodipodi:role="line"
         x="27.396626"
         y="778.59277"
         id="tspan2898"
         style="font-size:48px;font-style:normal;font-variant:normal;font-weight:normal;font-stretch:normal;text-align:start;text-anchor:start;font-family:Open Sans;-inkscape-font-specification:Open Sans"><tspan
           style="font-weight:bold;-inkscape-font-specification:Open Sans Bold"
           id="tspan2969">Peníze na základ<tspan
   style="font-size:42"
   id="tspan2971">ní příjem jsou</tspan></tspan><tspan
           style="font-size:42"
           id="tspan2973">.</tspan></tspan><tspan
         sodipodi:role="line"
         x="27.396626"
         y="836.19275"
         style="font-size:48px;font-style:normal;font-variant:normal;font-weight:normal;font-stretch:normal;text-align:start;text-anchor:start;font-family:Open Sans;-inkscape-font-specification:Open Sans"
         id="tspan2886"><tspan
   style="font-size:42"
   id="tspan2975">Brzdou může být, že na pá</tspan>r lidí</tspan><tspan
         sodipodi:role="line"
         x="27.396626"
         y="893.79279"
         style="font-size:48px;font-style:normal;font-variant:normal;font-weight:normal;font-stretch:normal;text-align:start;text-anchor:start;font-family:Open Sans;-inkscape-font-specification:Open Sans"
         id="tspan2888">působí slovo “přerozdělení”</tspan><tspan
         sodipodi:role="line"
         x="27.396626"
         y="951.39276"
         style="font-size:48px;font-style:normal;font-variant:normal;font-weight:normal;font-stretch:normal;text-align:start;text-anchor:start;font-family:Open Sans;-inkscape-font-specification:Open Sans"
         id="tspan2890">jako rudý hadr na býka.</tspan></text>
    <text
       xml:space="preserve"
       style="font-size:40px;font-style:normal;font-variant:normal;font-weight:normal;font-stretch:normal;text-align:center;line-height:120.00000476999998966%;letter-spacing:0px;word-spacing:0px;writing-mode:lr-tb;text-anchor:middle;fill:#000000;fill-opacity:1;stroke:none;font-family:Oswald;-inkscape-font-specification:Oswald"
       x="279.26471"
       y="635.21936"
       id="text2900"
       sodipodi:linespacing="120%"><tspan
         sodipodi:role="line"
         id="tspan2904"
         x="279.26471"
         y="635.21936"
         style="font-size:64px;font-style:normal;font-variant:normal;font-weight:normal;font-stretch:normal;font-family:Open Sans;-inkscape-font-specification:Open Sans;fill:#000000">Argument 07101</tspan></text>
    <text
       xml:space="preserve"
       style="font-size:24px;font-style:normal;font-variant:normal;font-weight:normal;font-stretch:normal;text-align:center;line-height:120.00000477%;letter-spacing:0px;word-spacing:0px;writing-mode:lr-tb;text-anchor:middle;fill:#000000;fill-opacity:1;stroke:none;font-family:Oswald;-inkscape-font-specification:Oswald"
       x="537.50269"
       y="1026.0779"
       id="text3727"
       sodipodi:linespacing="120%"><tspan
         sodipodi:role="line"
         id="tspan3729"
         x="537.50269"
         y="1026.0779"
         style="font-style:normal;font-variant:normal;font-weight:normal;font-stretch:normal;font-family:Open Sans;-inkscape-font-specification:Open Sans">www.vseobecnyzakladniprijem.cz</tspan></text>
  </g>
</svg>
