<?xml version="1.0" encoding="UTF-8" standalone="no"?>
<!-- Created with Inkscape (http://www.inkscape.org/) -->

<svg
   xmlns:dc="http://purl.org/dc/elements/1.1/"
   xmlns:cc="http://creativecommons.org/ns#"
   xmlns:rdf="http://www.w3.org/1999/02/22-rdf-syntax-ns#"
   xmlns:svg="http://www.w3.org/2000/svg"
   xmlns="http://www.w3.org/2000/svg"
   xmlns:xlink="http://www.w3.org/1999/xlink"
   xmlns:sodipodi="http://sodipodi.sourceforge.net/DTD/sodipodi-0.dtd"
   xmlns:inkscape="http://www.inkscape.org/namespaces/inkscape"
   width="744.09448"
   height="524.40942"
   id="svg2"
   version="1.1"
   inkscape:version="0.47 r22583"
   sodipodi:docname="poster_propose1.svg">
  <defs
     id="defs4">
    <linearGradient
       id="linearGradient3798">
      <stop
         style="stop-color:#3a3d8c;stop-opacity:1;"
         offset="0"
         id="stop3800" />
      <stop
         style="stop-color:#3a3d8c;stop-opacity:0;"
         offset="1"
         id="stop3802" />
    </linearGradient>
    <linearGradient
       id="linearGradient3998">
      <stop
         style="stop-color:#ffffff;stop-opacity:1;"
         offset="0"
         id="stop4000" />
      <stop
         style="stop-color:#ffffff;stop-opacity:0;"
         offset="1"
         id="stop4002" />
    </linearGradient>
    <linearGradient
       id="linearGradient3868">
      <stop
         style="stop-color:#3a3d8c;stop-opacity:1;"
         offset="0"
         id="stop3870" />
      <stop
         style="stop-color:#3a3d8c;stop-opacity:0;"
         offset="1"
         id="stop3872" />
    </linearGradient>
    <linearGradient
       id="linearGradient3748">
      <stop
         style="stop-color:#4161c4;stop-opacity:1;"
         offset="0"
         id="stop3750" />
      <stop
         style="stop-color:#ffffff;stop-opacity:0;"
         offset="1"
         id="stop3752" />
    </linearGradient>
    <inkscape:perspective
       sodipodi:type="inkscape:persp3d"
       inkscape:vp_x="0 : 526.18109 : 1"
       inkscape:vp_y="0 : 1000 : 0"
       inkscape:vp_z="744.09448 : 526.18109 : 1"
       inkscape:persp3d-origin="372.04724 : 350.78739 : 1"
       id="perspective10" />
    <inkscape:perspective
       id="perspective2884"
       inkscape:persp3d-origin="0.5 : 0.33333333 : 1"
       inkscape:vp_z="1 : 0.5 : 1"
       inkscape:vp_y="0 : 1000 : 0"
       inkscape:vp_x="0 : 0.5 : 1"
       sodipodi:type="inkscape:persp3d" />
    <inkscape:perspective
       sodipodi:type="inkscape:persp3d"
       inkscape:vp_x="0 : 0.5 : 1"
       inkscape:vp_y="0 : 1000 : 0"
       inkscape:vp_z="1 : 0.5 : 1"
       inkscape:persp3d-origin="0.5 : 0.33333333 : 1"
       id="perspective2823" />
    <inkscape:perspective
       sodipodi:type="inkscape:persp3d"
       inkscape:vp_x="0 : 0.5 : 1"
       inkscape:vp_y="0 : 1000 : 0"
       inkscape:vp_z="1 : 0.5 : 1"
       inkscape:persp3d-origin="0.5 : 0.33333333 : 1"
       id="perspective3719" />
    <inkscape:perspective
       sodipodi:type="inkscape:persp3d"
       inkscape:vp_x="0 : 0.5 : 1"
       inkscape:vp_y="0 : 1000 : 0"
       inkscape:vp_z="1 : 0.5 : 1"
       inkscape:persp3d-origin="0.5 : 0.33333333 : 1"
       id="perspective2884-9" />
    <inkscape:perspective
       id="perspective10-4"
       inkscape:persp3d-origin="372.04724 : 350.78739 : 1"
       inkscape:vp_z="744.09448 : 526.18109 : 1"
       inkscape:vp_y="0 : 1000 : 0"
       inkscape:vp_x="0 : 526.18109 : 1"
       sodipodi:type="inkscape:persp3d" />
    <inkscape:perspective
       sodipodi:type="inkscape:persp3d"
       inkscape:vp_x="0 : 0.5 : 1"
       inkscape:vp_y="0 : 1000 : 0"
       inkscape:vp_z="1 : 0.5 : 1"
       inkscape:persp3d-origin="0.5 : 0.33333333 : 1"
       id="perspective2823-3" />
    <inkscape:perspective
       sodipodi:type="inkscape:persp3d"
       inkscape:vp_x="0 : 0.5 : 1"
       inkscape:vp_y="0 : 1000 : 0"
       inkscape:vp_z="1 : 0.5 : 1"
       inkscape:persp3d-origin="0.5 : 0.33333333 : 1"
       id="perspective3719-1" />
    <inkscape:perspective
       sodipodi:type="inkscape:persp3d"
       inkscape:vp_x="0 : 0.5 : 1"
       inkscape:vp_y="0 : 1000 : 0"
       inkscape:vp_z="1 : 0.5 : 1"
       inkscape:persp3d-origin="0.5 : 0.33333333 : 1"
       id="perspective2884-91" />
    <inkscape:perspective
       id="perspective10-3"
       inkscape:persp3d-origin="372.04724 : 350.78739 : 1"
       inkscape:vp_z="744.09448 : 526.18109 : 1"
       inkscape:vp_y="0 : 1000 : 0"
       inkscape:vp_x="0 : 526.18109 : 1"
       sodipodi:type="inkscape:persp3d" />
    <inkscape:perspective
       id="perspective3898"
       inkscape:persp3d-origin="0.5 : 0.33333333 : 1"
       inkscape:vp_z="1 : 0.5 : 1"
       inkscape:vp_y="0 : 1000 : 0"
       inkscape:vp_x="0 : 0.5 : 1"
       sodipodi:type="inkscape:persp3d" />
    <inkscape:perspective
       sodipodi:type="inkscape:persp3d"
       inkscape:vp_x="0 : 0.5 : 1"
       inkscape:vp_y="0 : 1000 : 0"
       inkscape:vp_z="1 : 0.5 : 1"
       inkscape:persp3d-origin="0.5 : 0.33333333 : 1"
       id="perspective2884-2" />
    <inkscape:perspective
       id="perspective10-41"
       inkscape:persp3d-origin="372.04724 : 350.78739 : 1"
       inkscape:vp_z="744.09448 : 526.18109 : 1"
       inkscape:vp_y="0 : 1000 : 0"
       inkscape:vp_x="0 : 526.18109 : 1"
       sodipodi:type="inkscape:persp3d" />
    <linearGradient
       inkscape:collect="always"
       xlink:href="#linearGradient3798"
       id="linearGradient3808"
       x1="529.10315"
       y1="-296.34296"
       x2="726.37811"
       y2="-296.34296"
       gradientUnits="userSpaceOnUse"
       gradientTransform="matrix(2.9048375,0,0,0.28945923,-1537.2431,699.3777)" />
    <inkscape:perspective
       id="perspective3050"
       inkscape:persp3d-origin="0.5 : 0.33333333 : 1"
       inkscape:vp_z="1 : 0.5 : 1"
       inkscape:vp_y="0 : 1000 : 0"
       inkscape:vp_x="0 : 0.5 : 1"
       sodipodi:type="inkscape:persp3d" />
  </defs>
  <sodipodi:namedview
     id="base"
     pagecolor="#ffffff"
     bordercolor="#666666"
     borderopacity="1.0"
     inkscape:pageopacity="0.0"
     inkscape:pageshadow="2"
     inkscape:zoom="0.175"
     inkscape:cx="743.57539"
     inkscape:cy="-1231.0578"
     inkscape:document-units="px"
     inkscape:current-layer="layer1"
     showgrid="false"
     inkscape:window-width="1440"
     inkscape:window-height="872"
     inkscape:window-x="0"
     inkscape:window-y="0"
     inkscape:window-maximized="1"
     showguides="true"
     inkscape:guide-bbox="true" />
  <metadata
     id="metadata7">
    <rdf:RDF>
      <cc:Work
         rdf:about="">
        <dc:format>image/svg+xml</dc:format>
        <dc:type
           rdf:resource="http://purl.org/dc/dcmitype/StillImage" />
        <dc:title />
      </cc:Work>
    </rdf:RDF>
  </metadata>
  <g
     inkscape:label="Layer 1"
     inkscape:groupmode="layer"
     id="layer1"
     transform="translate(0,-527.95273)">
    <rect
       style="fill:url(#linearGradient3808);fill-opacity:1;fill-rule:evenodd;stroke:none"
       id="rect3866"
       width="573.05176"
       height="171.19011"
       x="-0.28442383"
       y="528.00348" />
    <text
       xml:space="preserve"
       style="font-size:32px;font-style:normal;font-variant:normal;font-weight:bold;font-stretch:normal;text-align:start;line-height:100%;letter-spacing:0px;word-spacing:0px;writing-mode:lr-tb;text-anchor:start;fill:#000000;fill-opacity:1;stroke:none;font-family:FreeSans;-inkscape-font-specification:FreeSans Bold"
       x="2.1428571"
       y="567.36218"
       id="text3742"
       sodipodi:linespacing="100%"><tspan
         sodipodi:role="line"
         id="tspan3744"
         x="2.1428571"
         y="567.36218" /></text>
    <text
       xml:space="preserve"
       style="font-size:57.19200134px;font-style:normal;font-variant:normal;font-weight:normal;font-stretch:normal;text-align:center;line-height:120.00000477%;letter-spacing:0px;word-spacing:0px;writing-mode:lr-tb;text-anchor:middle;fill:#ffff00;fill-opacity:1;stroke:none;font-family:Open Sans;-inkscape-font-specification:Open Sans"
       x="112.60426"
       y="635.28156"
       id="text3882"
       sodipodi:linespacing="120%"><tspan
         sodipodi:role="line"
         id="tspan3884"
         x="112.60426"
         y="635.28156"
         style="font-size:57.19200134px;font-style:normal;font-variant:normal;font-weight:normal;font-stretch:normal;fill:#ffff00;font-family:Open Sans;-inkscape-font-specification:Open Sans">TEST</tspan></text>
    <text
       xml:space="preserve"
       style="font-size:36px;font-style:normal;font-variant:normal;font-weight:normal;font-stretch:normal;text-align:center;line-height:120.00000477%;letter-spacing:0px;word-spacing:0px;writing-mode:lr-tb;text-anchor:middle;fill:#000000;fill-opacity:1;stroke:none;font-family:Oswald;-inkscape-font-specification:Oswald"
       x="202.22337"
       y="764.91479"
       id="text4040"
       sodipodi:linespacing="120%"><tspan
         sodipodi:role="line"
         id="tspan4042"
         x="202.22337"
         y="764.91479"
         style="font-style:normal;font-variant:normal;font-weight:normal;font-stretch:normal;font-family:Open Sans;-inkscape-font-specification:Open Sans">pokus pokus pokus</tspan></text>
    <g
       id="layer1-3"
       inkscape:label="Layer 1"
       transform="matrix(0.30414976,0,0,0.30414976,542.07594,520.93478)">
      <text
         sodipodi:linespacing="100%"
         id="text3742-8"
         y="567.36218"
         x="2.1428571"
         style="font-size:32px;font-style:normal;font-variant:normal;font-weight:bold;font-stretch:normal;text-align:start;line-height:100%;letter-spacing:0px;word-spacing:0px;writing-mode:lr-tb;text-anchor:start;fill:#000000;fill-opacity:1;stroke:none;font-family:FreeSans;-inkscape-font-specification:FreeSans Bold"
         xml:space="preserve"><tspan
           y="567.36218"
           x="2.1428571"
           id="tspan3744-6"
           sodipodi:role="line" /></text>
      <g
         transform="translate(684.85371,62.629457)"
         id="g3688">
        <text
           xml:space="preserve"
           style="font-size:45px;font-style:normal;font-variant:normal;font-weight:normal;font-stretch:normal;line-height:80.00000119%;letter-spacing:0px;word-spacing:0px;fill:#000000;fill-opacity:1;stroke:none;font-family:Ubuntu;-inkscape-font-specification:Ubuntu"
           id="text3731"
           sodipodi:linespacing="80.000001%"><textPath
             xlink:href="#path3735"
             id="textPath3684"
             style="font-style:normal;font-variant:normal;font-weight:normal;font-stretch:normal;font-family:Open Sans;-inkscape-font-specification:Open Sans">EVROPSKÁ INICIATIVA</textPath></text>
        <path
           transform="matrix(-1.248651,1.3437147,1.3136887,1.2207476,-528.95835,-555.81557)"
           d="m 361.42857,388.79074 c 0,70.61355 -55.9644,127.85714 -125,127.85714 -69.03559,0 -125,-57.24359 -125,-127.85714 0,-70.61355 55.96441,-127.85714 125,-127.85714 69.0356,0 125,57.24359 125,127.85714 z"
           sodipodi:ry="127.85714"
           sodipodi:rx="125"
           sodipodi:cy="388.79074"
           sodipodi:cx="236.42857"
           id="path3740"
           style="opacity:0;fill:#ff5a00;fill-opacity:0.65740739;fill-rule:evenodd;stroke:none"
           sodipodi:type="arc" />
        <path
           sodipodi:type="arc"
           style="opacity:0;fill:#ffff00;fill-opacity:0.72685188;fill-rule:evenodd;stroke:none"
           id="path3735"
           sodipodi:cx="236.42857"
           sodipodi:cy="388.79074"
           sodipodi:rx="125"
           sodipodi:ry="127.85714"
           d="m 361.42857,388.79074 c 0,70.61355 -55.9644,127.85714 -125,127.85714 -69.03559,0 -125,-57.24359 -125,-127.85714 0,-70.61355 55.96441,-127.85714 125,-127.85714 69.0356,0 125,57.24359 125,127.85714 z"
           transform="matrix(-1.4922381,0.11817329,-0.11553256,-1.4588922,84.30059,775.75658)" />
        <g
           id="g2895"
           transform="translate(-681.42857,-88.281101)">
          <path
             sodipodi:nodetypes="cscscccccsscccsscccccssccccsssssssscccssssscccssssccccccccccssssssssssscsscccs"
             id="path2900"
             d="m 366.88517,147.52263 c -97.89292,0 -177.25081,79.3579 -177.25081,177.25082 0,4.17261 0.15423,8.33503 0.43787,12.43558 7.58217,-6.86191 12.58213,-9.38093 32.70908,-17.47112 20.37482,-8.18983 25.16342,-11.11961 38.75172,-23.73269 l 11.20954,-10.42137 0.7006,-11.03439 0.70059,-11.07817 5.95507,-0.43787 c 4.26164,-0.30845 6.39641,-1.24512 7.48762,-3.28405 3.12149,-5.83256 11.43832,-13.69494 16.11371,-15.23796 4.11702,-1.35874 5.68765,-1.14751 10.77166,1.31361 l 5.95507,2.88996 6.8746,-3.50298 c 8.9735,-4.54296 13.26928,-4.3695 19.70427,0.74439 2.90924,2.31196 6.82208,4.20357 8.66987,4.20357 5.03456,0 9.53677,3.61792 12.34801,9.85213 l 2.53966,5.56099 12.74209,0 12.74209,0 11.20954,-14.88767 c 13.42821,-17.85057 24.24828,-27.99932 37.04402,-34.7233 12.26454,-6.44483 32.14642,-11.78291 49.8299,-13.3989 0.28098,-0.0256 0.69217,-0.0985 1.0071,-0.13129 C 462.86099,168.62456 417.31688,147.5227 366.88517,147.5227 l 0,-7e-5 z m -75.18272,124.3996 c -7.11692,0.13269 -8.70563,0.67309 -9.50183,1.7077 -1.28763,1.67319 -1.75149,11.07005 -1.75149,35.42389 0,18.22001 0.38909,33.53604 0.87574,34.0227 1.27444,1.27444 5.63875,-1.3784 6.65566,-4.02843 0.476,-1.24042 0.87575,-15.78474 0.87575,-32.31499 0,-22.89871 0.40466,-30.17804 1.75149,-30.69487 0.97226,-0.37308 28.76884,-0.19586 61.74003,0.39409 32.9712,0.58993 60.99522,0.65235 62.30927,0.17514 3.33336,-1.21057 -21.34509,-2.41859 -80.26204,-3.94085 -22.93053,-0.59245 -35.57566,-0.877 -42.69258,-0.74438 z m 4.86039,11.16575 -0.39409,24.87116 c -0.25804,16.77214 0.0965,24.87116 1.09468,24.87116 0.81405,0 4.47653,-1.51295 8.14443,-3.37162 9.81259,-4.97242 22.32412,-8.26698 27.93627,-7.35626 21.34537,3.46389 17.48793,26.60536 -7.26868,43.6559 -6.69913,4.61386 -8.89925,6.94313 -7.44384,7.92549 0.59218,0.39971 98.78569,2.06145 116.64925,1.97043 l 16.81431,-0.0876 0.39409,-30.12563 c 0.41988,-30.90251 -0.13354,-39.23338 -2.67103,-39.23338 -0.79838,0 -6.62196,3.70167 -12.91724,8.232 -14.31624,10.30254 -15.96413,11.17356 -25.39661,12.91724 -15.42309,2.85112 -23.79496,-2.66581 -23.60133,-15.50068 0.12009,-7.96424 1.70904,-11.13304 9.80835,-19.79184 l 6.174,-6.61188 -6.74324,-0.74438 c -3.69411,-0.42881 -27.82242,-0.99992 -53.63938,-1.22605 l -46.93994,-0.39408 z m 247.09148,29.07474 c -9.58173,7.98552 -16.85188,11.44128 -34.59193,17.69005 -18.27575,6.43747 -27.79761,12.46922 -40.24049,25.65933 l -9.37047,9.98349 0.83196,7.96929 c 0.98198,9.39507 -0.25314,11.20953 -7.61898,11.20953 -4.68659,0 -5.57242,0.62828 -8.97639,6.43673 -5.97124,10.18915 -19.05975,14.823 -26.00963,9.19532 -3.16175,-2.56021 -3.31353,-2.53866 -9.15154,1.57634 -8.45129,5.95703 -16.27183,6.02599 -21.49954,0.17515 -2.50711,-2.80594 -5.73636,-4.64938 -9.19533,-5.21068 -5.95914,-0.96705 -11.28041,-5.20649 -12.47936,-9.98349 -0.66079,-2.6328 -2.01999,-3.33661 -8.14443,-4.07222 -16.92238,-2.03251 -18.48621,-1.64832 -25.26525,6.43673 -3.39238,4.04594 -9.99979,12.74767 -14.71252,19.35396 -11.64636,16.32587 -16.7815,19.63462 -46.58964,29.95049 -11.11763,3.84755 -19.31524,5.79131 -32.84044,7.66277 32.32801,34.3601 78.18428,55.82875 129.08483,55.82875 97.89292,0 177.25081,-79.35789 177.25081,-177.25081 0,-4.24674 -0.14414,-8.43873 -0.43787,-12.61073 -0.008,0.007 -0.0355,-0.007 -0.0437,0 l -7e-5,0 z"
             style="fill:#3a3d8c;fill-opacity:1;fill-rule:evenodd;stroke:none" />
          <path
             sodipodi:nodetypes="ccccccccccccccc"
             id="rect3723"
             d="m 279.69792,267.99851 141.19646,5.69121 -23.36294,25.80185 -6.01047,12.54836 4.36162,11.69393 24.56032,-1.34747 34.58158,-24.66287 0.53909,80.32373 -150.36686,-2.39629 30.9921,-22.15557 8.93861,-19.61858 -9.42449,-7.75382 -20.97342,3.09233 -36.33377,17.6946 1.30217,-78.91141 z"
             style="fill:#ffff00;fill-opacity:1;fill-rule:evenodd;stroke:none" />
          <path
             sodipodi:nodetypes="cssssscccsssssssssssssssssssssssssscccccsscccsscccccsssssssscccsssssssssssssscccssssssssscccssssssssssssscccsssccssccsssccssssccccccssssscccccssssssssccssssccssccssccc"
             style="fill:#313133"
             d="m 156.4037,458.87434 c -0.53716,-0.86916 -0.35228,-2.20468 0.41088,-2.96784 1.9491,-1.9491 27.53469,-7.30741 65.69495,-13.75831 33.50444,-5.66384 46.49982,-9.20716 64.85302,-17.68286 12.91566,-5.96458 17.17875,-9.92099 29.8337,-27.68759 7.66399,-10.75967 9.41737,-14.09092 7.91689,-15.04136 -1.06005,-0.67144 -7.09654,-1.23047 -13.41443,-1.24227 l -11.4871,-0.0214 -8.35616,6.95408 c -4.5959,3.82473 -11.4069,11.0759 -15.13557,16.11368 -6.31523,8.5325 -11.68356,11.85846 -11.68356,7.23859 0,-2.67072 15.53918,-21.65047 22.15096,-27.05548 2.99778,-2.45063 11.378,-8.03279 18.62272,-12.4048 18.39351,-11.10004 27.46914,-18.36233 31.46218,-25.17592 6.90208,-11.77751 3.08974,-18.44982 -9.78254,-17.12128 -8.1123,0.83727 -23.32087,7.34516 -29.82374,12.76189 -6.3744,5.30971 -24.87879,14.86897 -28.78266,14.86897 -1.99132,0 -7.60199,-1.01999 -12.46816,-2.26665 -11.11911,-2.84857 -24.997,-2.03684 -32.71393,1.91347 -3.08262,1.57799 -13.09661,7.66256 -22.25331,13.52127 -9.1567,5.8587 -17.82657,10.65218 -19.2664,10.65218 -4.1146,0 -3.06132,-4.09048 1.73057,-6.72083 2.39164,-1.31281 11.34012,-6.96981 19.88553,-12.5711 8.54539,-5.60131 18.68324,-11.11851 22.52855,-12.26044 9.14035,-2.7144 21.29366,-2.63212 33.12808,0.22426 13.17032,3.17885 13.98792,2.65822 13.99568,-8.91219 0.004,-5.22612 0.41415,-16.57874 0.91254,-25.22808 1.15436,-20.03314 10e-4,-20.9501 -12.17301,-9.67901 -10.72326,9.92784 -16.60019,13.33416 -37.78763,21.90209 -20.4913,8.28641 -26.55395,11.7115 -38.16297,21.56013 -11.86949,10.06961 -22.7453,16.86129 -36.27205,22.65097 -12.53837,5.36665 -17.09743,6.07935 -16.39491,2.56298 0.26733,-1.33815 5.56018,-4.46706 12.91252,-7.63335 15.18006,-6.5373 29.58079,-15.92693 40.78581,-26.59335 9.43545,-8.98189 13.00318,-10.99577 35.49908,-20.03818 20.37482,-8.18983 25.17581,-11.13051 38.76411,-23.7436 l 11.20954,-10.40504 0.70059,-11.0574 0.7006,-11.05741 5.94872,-0.43056 c 4.26164,-0.30844 6.38069,-1.23771 7.4719,-3.27664 3.12149,-5.83256 11.44152,-13.703 16.1169,-15.24602 4.11703,-1.35874 5.71446,-1.16735 10.79847,1.29377 l 5.96666,2.88842 6.86148,-3.47372 c 8.9735,-4.54296 13.26288,-4.38404 19.69786,0.72985 2.90924,2.31197 6.80134,4.20358 8.64913,4.20358 5.03455,0 9.57142,3.60496 12.38266,9.83917 l 2.5135,5.57394 12.75683,0 12.75683,0 11.20094,-14.88975 c 13.42821,-17.85058 24.24794,-27.98977 37.04368,-34.71374 12.26454,-6.44484 32.13814,-11.79403 49.82162,-13.41001 7.70655,-0.70426 28.47676,-4.16004 46.15601,-7.67953 30.18103,-6.00827 36.35898,-6.45196 33.875,-2.43279 -1.0674,1.72709 -12.8399,4.32789 -52.00717,11.48945 -64.46688,11.78749 -74.63125,15.324 -92.25755,32.09942 -9.48629,9.02837 -23.34081,26.91461 -23.34081,30.1331 0,1.70479 1.77489,2.14258 10.43429,2.19944 0.71496,0.004 1.47686,0.007 2.28855,0.007 l 12.72284,0 12.36933,-10.49437 c 6.80314,-5.77191 14.37212,-13.02308 16.81994,-16.11371 4.83344,-6.10271 8.4187,-7.28326 8.4187,-2.77208 0,4.44611 -19.87915,23.39194 -37.83219,36.05597 -8.86254,6.25163 -19.71379,13.90281 -24.1139,17.00264 -12.44773,8.76932 -17.72495,22.39799 -10.60412,27.38561 3.9325,2.75443 13.69208,2.80767 20.14872,0.10986 2.72657,-1.13923 10.11512,-5.96442 16.419,-10.72263 12.32958,-9.30643 26.23974,-16.6282 31.59425,-16.62998 1.82508,-6e-4 8.57471,1.08087 14.99919,2.40329 9.81454,2.02022 12.95067,2.13805 19.6281,0.73744 8.58146,-1.79998 35.45083,-16.52686 45.55381,-24.96766 6.22993,-5.20495 7.57528,-5.66736 9.137,-3.14042 2.13717,3.458 -26.35333,23.28936 -43.59469,30.34492 -9.95834,4.07519 -23.41473,4.71919 -36.83137,1.76273 -6.68959,-1.47411 -9.63786,-1.5625 -12.26043,-0.36758 l -3.45291,1.5733 0,25.16881 c 0,16.26275 0.52708,25.49456 1.48953,26.08938 0.81923,0.50632 5.39062,-2.81369 10.15864,-7.37779 11.04512,-10.57275 18.32873,-14.77291 36.26049,-20.90995 19.80984,-6.77981 28.06274,-11.46021 41.85333,-23.73599 13.27397,-11.8159 26.92182,-20.44772 41.80032,-26.43733 7.66962,-3.08755 10.42735,-3.6545 11.68051,-2.40135 2.36728,2.36729 0.33641,3.92731 -12.21716,9.38456 -16.1673,7.0282 -24.84422,12.75511 -38.62203,25.49113 -13.95125,12.89636 -19.90915,16.32395 -41.74305,24.01474 -18.27575,6.43747 -27.77579,12.5075 -40.21867,25.69761 l -9.39517,9.95938 0.83186,7.95875 c 0.98198,9.39507 -0.26462,11.22967 -7.63046,11.22967 -4.68658,0 -5.55804,0.62565 -8.96201,6.43409 -5.97124,10.18915 -19.06553,14.81175 -26.01542,9.18407 -3.16175,-2.56021 -3.29217,-2.53768 -9.13018,1.57733 -8.45129,5.95702 -16.29194,6.01788 -21.51965,0.16705 -2.50711,-2.80595 -5.7167,-4.61744 -9.17567,-5.17874 -5.95914,-0.96705 -11.28401,-5.24 -12.48297,-10.017 -0.66078,-2.6328 -2.05095,-3.32291 -8.17539,-4.05852 -16.92238,-2.03252 -18.46162,-1.63945 -25.24066,6.44559 -3.39238,4.04595 -10.02385,12.76142 -14.73658,19.36772 -11.64635,16.32586 -16.76122,19.61306 -46.56936,29.92893 -13.95978,4.83114 -23.14384,6.72691 -44.31165,9.14683 -11.15094,1.27477 -60.15297,10.16607 -66.61491,12.0871 -1.2838,0.38166 -2.77367,-0.0172 -3.31083,-0.88635 l 0,-1e-5 z m 248.47267,-63.0292 c 3.89879,-3.63228 7.65039,-10.84551 6.5591,-12.61125 -1.20453,-1.94897 -16.60603,-1.683 -18.61042,0.32139 -1.77237,1.77237 -2.34243,12.60363 -0.7473,14.19874 1.99268,1.9927 9.87221,0.81747 12.79862,-1.90888 z m 30.82676,-5.07773 c 4.91902,-5.50993 3.59151,-8.11395 -4.3967,-8.62447 -10.10177,-0.64562 -13.46705,3.61794 -8.47792,10.7409 2.82919,4.03926 8.16167,3.16266 12.87462,-2.11643 z m -51.84571,-2.16784 c 0.92479,-0.92478 1.68143,-2.81639 1.68143,-4.20357 0,-2.05509 -1.16766,-2.52215 -6.30536,-2.52215 -5.3177,0 -6.30537,0.42806 -6.30537,2.73276 0,4.68042 7.5013,7.42097 10.9293,3.99296 z m 68.64738,-43.15672 c 0.41988,-30.90251 -0.151,-39.23338 -2.68849,-39.23338 -0.79838,0 -6.60226,3.70663 -12.89754,8.23697 -14.31624,10.30253 -15.98302,11.14798 -25.41549,12.89166 -15.42309,2.85112 -23.78605,-2.63127 -23.59242,-15.46614 0.12008,-7.96424 1.69005,-11.13923 9.78936,-19.79804 l 6.17596,-6.60261 -6.71658,-0.77964 c -3.69412,-0.42881 -27.83955,-0.96464 -53.65652,-1.19076 l -46.93993,-0.41111 -0.38263,24.87116 c -0.25804,16.77215 0.0994,24.87116 1.09747,24.87116 0.81405,0 4.48113,-1.52072 8.14903,-3.37939 9.81259,-4.97243 22.28841,-8.25759 27.90056,-7.34687 21.34537,3.46388 17.49624,26.61159 -7.26037,43.66213 -6.69913,4.61386 -8.89071,6.95278 -7.43529,7.93514 0.59217,0.39971 98.78569,2.04205 116.64925,1.95102 l 16.81431,-0.0856 0.40932,-30.12563 0,-6e-5 z m -164.51366,-6.38104 c 0.476,-1.24042 0.86545,-15.78006 0.86545,-32.31032 0,-22.8987 0.4209,-30.21652 1.76773,-30.73335 0.97226,-0.37308 28.74417,-0.19567 61.71535,0.39428 32.97121,0.58993 61.02277,0.68215 62.33682,0.20495 3.33336,-1.21057 -21.3642,-2.42485 -80.28116,-3.9471 -45.86106,-1.18492 -50.60201,-1.09657 -52.1944,0.97264 -1.28763,1.67319 -1.7515,11.04938 -1.7515,35.40322 0,18.22001 0.39818,33.52544 0.88483,34.0121 1.27444,1.27444 5.63997,-1.34639 6.65688,-3.99642 z m 54.15565,-76.63959 c 3.5302,-5.72903 3.05593,-9.50618 -1.51465,-12.06274 -3.15442,-1.76444 -4.17461,-1.71159 -8.73537,0.45264 -5.62492,2.6692 -11.55895,10.79718 -10.2924,14.09774 0.57774,1.50558 3.09159,2.06623 9.2646,2.06623 8.04811,0 8.61205,-0.22771 11.27782,-4.55387 z m 18.90928,3.09105 c 1.34255,-2.17228 -3.21299,-8.34553 -6.15859,-8.34553 -3.40265,0 -7.74076,4.95298 -6.70414,7.65437 0.95684,2.49347 11.40196,3.05474 12.86273,0.69116 z m -46.97802,-6.09382 c 0,-6.46096 -1.34586,-7.85647 -7.57691,-7.85647 -4.46916,0 -13.48227,10.70117 -11.05636,13.12709 0.48667,0.48665 4.87823,0.88483 9.75906,0.88483 l 8.87421,0 0,-6.15545 z"
             id="path2892"
             inkscape:label="basic incom text snap object" />
          <path
             transform="matrix(1.2971132,0.88072435,-0.87212754,1.3128923,461.58567,-230.6043)"
             d="m 60.693213,335.1774 -8.881598,-3.72834 -6.151054,7.31703 0.84562,-9.50501 -8.915414,-3.65973 9.364784,-2.18072 0.662066,-9.61472 5.044613,8.22412 9.260645,-2.2162 -6.243754,7.24445 5.014092,8.11912 z"
             inkscape:randomized="0.004"
             inkscape:rounded="0"
             inkscape:flatsided="false"
             sodipodi:arg2="1.3369448"
             sodipodi:arg1="0.70862627"
             sodipodi:r2="4.9522123"
             sodipodi:r1="13.170778"
             sodipodi:cy="326.64789"
             sodipodi:cx="50.714287"
             sodipodi:sides="5"
             id="path3674"
             style="fill:#ffff00;fill-opacity:1;fill-rule:evenodd;stroke:none"
             sodipodi:type="star" />
          <path
             sodipodi:type="star"
             style="fill:#ffff00;fill-opacity:1;fill-rule:evenodd;stroke:none"
             id="path3676"
             sodipodi:sides="5"
             sodipodi:cx="50.714287"
             sodipodi:cy="326.64789"
             sodipodi:r1="13.170778"
             sodipodi:r2="4.9522123"
             sodipodi:arg1="0.70862627"
             sodipodi:arg2="1.3369448"
             inkscape:flatsided="false"
             inkscape:rounded="0"
             inkscape:randomized="0.004"
             d="m 60.693213,335.1774 -8.881598,-3.72834 -6.151054,7.31703 0.84562,-9.50501 -8.915414,-3.65973 9.364784,-2.18072 0.662066,-9.61472 5.044613,8.22412 9.260645,-2.2162 -6.243754,7.24445 5.014092,8.11912 z"
             transform="matrix(0.10487786,1.564346,-1.5714841,0.12136827,785.82749,86.651607)" />
          <path
             transform="matrix(-1.0670358,1.1487439,-1.1656431,-1.0609283,760.77539,465.82307)"
             d="m 60.693213,335.1774 -8.881598,-3.72834 -6.151054,7.31703 0.84562,-9.50501 -8.915414,-3.65973 9.364784,-2.18072 0.662066,-9.61472 5.044613,8.22412 9.260645,-2.2162 -6.243754,7.24445 5.014092,8.11912 z"
             inkscape:randomized="0.004"
             inkscape:rounded="0"
             inkscape:flatsided="false"
             sodipodi:arg2="1.3369448"
             sodipodi:arg1="0.70862627"
             sodipodi:r2="4.9522123"
             sodipodi:r1="13.170778"
             sodipodi:cy="326.64789"
             sodipodi:cx="50.714287"
             sodipodi:sides="5"
             id="path3678"
             style="fill:#ffff00;fill-opacity:1;fill-rule:evenodd;stroke:none"
             sodipodi:type="star" />
          <path
             sodipodi:type="star"
             style="fill:#ffff00;fill-opacity:1;fill-rule:evenodd;stroke:none"
             id="path3680"
             sodipodi:sides="5"
             sodipodi:cx="50.714287"
             sodipodi:cy="326.64789"
             sodipodi:r1="13.170778"
             sodipodi:r2="4.9522123"
             sodipodi:arg1="0.70862627"
             sodipodi:arg2="1.3369448"
             inkscape:flatsided="false"
             inkscape:rounded="0"
             inkscape:randomized="0.004"
             d="m 60.693213,335.1774 -8.881598,-3.72834 -6.151054,7.31703 0.84562,-9.50501 -8.915414,-3.65973 9.364784,-2.18072 0.662066,-9.61472 5.044613,8.22412 9.260645,-2.2162 -6.243754,7.24445 5.014092,8.11912 z"
             transform="matrix(-0.60516409,1.4463589,-1.4601132,-0.59360092,883.66329,292.63289)" />
          <path
             transform="matrix(-1.5330454,0.32855745,-0.34590236,-1.5377399,617.07828,673.2609)"
             d="m 60.693213,335.1774 -8.881598,-3.72834 -6.151054,7.31703 0.84562,-9.50501 -8.915414,-3.65973 9.364784,-2.18072 0.662066,-9.61472 5.044613,8.22412 9.260645,-2.2162 -6.243754,7.24445 5.014092,8.11912 z"
             inkscape:randomized="0.004"
             inkscape:rounded="0"
             inkscape:flatsided="false"
             sodipodi:arg2="1.3369448"
             sodipodi:arg1="0.70862627"
             sodipodi:r2="4.9522123"
             sodipodi:r1="13.170778"
             sodipodi:cy="326.64789"
             sodipodi:cx="50.714287"
             sodipodi:sides="5"
             id="path3682"
             style="fill:#ffff00;fill-opacity:1;fill-rule:evenodd;stroke:none"
             sodipodi:type="star" />
          <path
             sodipodi:type="star"
             style="fill:#ffff00;fill-opacity:1;fill-rule:evenodd;stroke:none"
             id="path3684"
             sodipodi:sides="5"
             sodipodi:cx="50.714287"
             sodipodi:cy="326.64789"
             sodipodi:r1="13.170778"
             sodipodi:r2="4.9522123"
             sodipodi:arg1="0.70862627"
             sodipodi:arg2="1.3369448"
             inkscape:flatsided="false"
             inkscape:rounded="0"
             inkscape:randomized="0.004"
             d="m 60.693213,335.1774 -8.881598,-3.72834 -6.151054,7.31703 0.84562,-9.50501 -8.915414,-3.65973 9.364784,-2.18072 0.662066,-9.61472 5.044613,8.22412 9.260645,-2.2162 -6.243754,7.24445 5.014092,8.11912 z"
             transform="matrix(-0.89822491,1.2850564,-1.3009506,-0.8898428,689.76179,514.39052)" />
          <path
             transform="matrix(-1.0404044,1.172918,-1.1896727,-1.0339108,737.49835,734.76362)"
             d="m 60.693213,335.1774 -8.881598,-3.72834 -6.151054,7.31703 0.84562,-9.50501 -8.915414,-3.65973 9.364784,-2.18072 0.662066,-9.61472 5.044613,8.22412 9.260645,-2.2162 -6.243754,7.24445 5.014092,8.11912 z"
             inkscape:randomized="0.004"
             inkscape:rounded="0"
             inkscape:flatsided="false"
             sodipodi:arg2="1.3369448"
             sodipodi:arg1="0.70862627"
             sodipodi:r2="4.9522123"
             sodipodi:r1="13.170778"
             sodipodi:cy="326.64789"
             sodipodi:cx="50.714287"
             sodipodi:sides="5"
             id="path3686"
             style="fill:#ffff00;fill-opacity:1;fill-rule:evenodd;stroke:none"
             sodipodi:type="star" />
          <path
             sodipodi:type="star"
             style="fill:#ffff00;fill-opacity:1;fill-rule:evenodd;stroke:none"
             id="path3688"
             sodipodi:sides="5"
             sodipodi:cx="50.714287"
             sodipodi:cy="326.64789"
             sodipodi:r1="13.170778"
             sodipodi:r2="4.9522123"
             sodipodi:arg1="0.70862627"
             sodipodi:arg2="1.3369448"
             inkscape:flatsided="false"
             inkscape:rounded="0"
             inkscape:randomized="0.004"
             d="m 60.693213,335.1774 -8.881598,-3.72834 -6.151054,7.31703 0.84562,-9.50501 -8.915414,-3.65973 9.364784,-2.18072 0.662066,-9.61472 5.044613,8.22412 9.260645,-2.2162 -6.243754,7.24445 5.014092,8.11912 z"
             transform="matrix(-1.3858503,0.73320997,-0.75117788,-1.3856495,663.65525,892.39758)" />
          <path
             transform="matrix(-1.5572364,0.18218887,-0.19901242,-1.5635495,548.19546,975.17378)"
             d="m 60.693213,335.1774 -8.881598,-3.72834 -6.151054,7.31703 0.84562,-9.50501 -8.915414,-3.65973 9.364784,-2.18072 0.662066,-9.61472 5.044613,8.22412 9.260645,-2.2162 -6.243754,7.24445 5.014092,8.11912 z"
             inkscape:randomized="0.004"
             inkscape:rounded="0"
             inkscape:flatsided="false"
             sodipodi:arg2="1.3369448"
             sodipodi:arg1="0.70862627"
             sodipodi:r2="4.9522123"
             sodipodi:r1="13.170778"
             sodipodi:cy="326.64789"
             sodipodi:cx="50.714287"
             sodipodi:sides="5"
             id="path3690"
             style="fill:#ffff00;fill-opacity:1;fill-rule:evenodd;stroke:none"
             sodipodi:type="star" />
          <path
             sodipodi:type="star"
             style="fill:#ffff00;fill-opacity:1;fill-rule:evenodd;stroke:none"
             id="path3692"
             sodipodi:sides="5"
             sodipodi:cx="50.714287"
             sodipodi:cy="326.64789"
             sodipodi:r1="13.170778"
             sodipodi:r2="4.9522123"
             sodipodi:arg1="0.70862627"
             sodipodi:arg2="1.3369448"
             inkscape:flatsided="false"
             inkscape:rounded="0"
             inkscape:randomized="0.004"
             d="m 60.693213,335.1774 -8.881598,-3.72834 -6.151054,7.31703 0.84562,-9.50501 -8.915414,-3.65973 9.364784,-2.18072 0.662066,-9.61472 5.044613,8.22412 9.260645,-2.2162 -6.243754,7.24445 5.014092,8.11912 z"
             transform="matrix(-0.82262889,1.3347133,-1.3500977,-0.81334419,937.61263,642.58061)" />
          <path
             transform="matrix(-1.2407845,0.95845276,-0.97612415,-1.2375275,873.98735,765.97649)"
             d="m 60.693213,335.1774 -8.881598,-3.72834 -6.151054,7.31703 0.84562,-9.50501 -8.915414,-3.65973 9.364784,-2.18072 0.662066,-9.61472 5.044613,8.22412 9.260645,-2.2162 -6.243754,7.24445 5.014092,8.11912 z"
             inkscape:randomized="0.004"
             inkscape:rounded="0"
             inkscape:flatsided="false"
             sodipodi:arg2="1.3369448"
             sodipodi:arg1="0.70862627"
             sodipodi:r2="4.9522123"
             sodipodi:r1="13.170778"
             sodipodi:cy="326.64789"
             sodipodi:cx="50.714287"
             sodipodi:sides="5"
             id="path3694"
             style="fill:#ffff00;fill-opacity:1;fill-rule:evenodd;stroke:none"
             sodipodi:type="star" />
          <path
             sodipodi:type="star"
             style="fill:#ffff00;fill-opacity:1;fill-rule:evenodd;stroke:none"
             id="path3696"
             sodipodi:sides="5"
             sodipodi:cx="50.714287"
             sodipodi:cy="326.64789"
             sodipodi:r1="13.170778"
             sodipodi:r2="4.9522123"
             sodipodi:arg1="0.70862627"
             sodipodi:arg2="1.3369448"
             inkscape:flatsided="false"
             inkscape:rounded="0"
             inkscape:randomized="0.004"
             d="m 60.693213,335.1774 -8.881598,-3.72834 -6.151054,7.31703 0.84562,-9.50501 -8.915414,-3.65973 9.364784,-2.18072 0.662066,-9.61472 5.044613,8.22412 9.260645,-2.2162 -6.243754,7.24445 5.014092,8.11912 z"
             transform="matrix(-1.5213339,0.37910534,-0.3965961,-1.5254522,723.46088,840.32956)" />
        </g>
        <text
           sodipodi:linespacing="80.000001%"
           id="text3746"
           style="font-size:33.62861252px;font-style:normal;font-variant:normal;font-weight:normal;font-stretch:normal;line-height:80.00000119%;letter-spacing:0px;word-spacing:0px;fill:#000000;fill-opacity:1;stroke:none;font-family:Ubuntu;-inkscape-font-specification:Ubuntu"
           xml:space="preserve"><textPath
             xlink:href="#path3740"
             id="textPath3686"
             style="font-size:45px;font-style:normal;font-variant:normal;font-weight:normal;font-stretch:normal;font-family:Open Sans;-inkscape-font-specification:Open Sans">   ZA ZÁKLADNÍ PŘÍJEM</textPath></text>
      </g>
    </g>
    <image
       y="1241.6923"
       x="-1923.6855"
       id="image3052"
       height="1080"
       width="1920"
       xlink:href="file:///home/vencax/Ubuntu%20One/grafika/vzp/proposals/inkscape_pasted_image_20130703_214555.png" />
    <text
       sodipodi:linespacing="120%"
       id="text4014"
       y="1741.3848"
       x="-1254.755"
       style="font-size:85.53417206px;font-style:normal;font-variant:normal;font-weight:normal;font-stretch:normal;text-align:center;line-height:120.00000477%;letter-spacing:0px;word-spacing:0px;writing-mode:lr-tb;text-anchor:middle;fill:#0000ff;fill-opacity:1;stroke:none;font-family:Oswald;-inkscape-font-specification:Oswald"
       xml:space="preserve"
       transform="scale(1.207837,0.82792631)"><tspan
         y="1741.3848"
         x="-1254.755"
         id="tspan4016"
         sodipodi:role="line"
         style="-inkscape-font-specification:Open Sans;font-family:Open Sans;font-weight:normal;font-style:normal;font-stretch:normal;font-variant:normal">question</tspan></text>
    <text
       xml:space="preserve"
       style="font-size:85.53417206px;font-style:normal;font-variant:normal;font-weight:normal;font-stretch:normal;text-align:center;line-height:120.00000477%;letter-spacing:0px;word-spacing:0px;writing-mode:lr-tb;text-anchor:middle;fill:#00ff00;fill-opacity:1;stroke:none;font-family:Oswald;-inkscape-font-specification:Oswald"
       x="-236.49098"
       y="2447.3811"
       id="text4090"
       sodipodi:linespacing="120%"
       transform="scale(1.207837,0.82792631)"><tspan
         sodipodi:role="line"
         id="tspan4092"
         x="-236.49098"
         y="2447.3811"
         style="-inkscape-font-specification:Open Sans;font-family:Open Sans;font-weight:normal;font-style:normal;font-stretch:normal;font-variant:normal">answer</tspan></text>
    <g
       id="g4174"
       transform="matrix(2.2082371,0,0,1.5136625,-2533.7225,-704.26705)">
      <g
         id="g4138"
         transform="matrix(0.75404195,0,0,0.75404195,500.20364,1322.4409)"
         style="fill:#ffffff">
        <path
           sodipodi:nodetypes="cssssscccsssssssssssssssssssssssssscccccsscccsscccccsssssssscccsssssssssssssscccssssssssscccssssssssssssscccsssccssccsssccssssccccccssssscccccssssssssccssssccssccssccc"
           style="fill:#ffffff"
           d="m 119.84651,485.26735 c -0.38336,-0.6203 -0.25141,-1.57343 0.29324,-2.11808 1.39103,-1.39103 19.6509,-5.21514 46.88504,-9.819 23.91138,-4.04216 33.18589,-6.57095 46.28417,-12.61987 9.21762,-4.25679 12.26009,-7.08039 21.29165,-19.76002 5.46962,-7.67894 6.72097,-10.05638 5.65011,-10.73469 -0.75653,-0.47919 -5.06464,-0.87816 -9.57358,-0.88658 l -8.19809,-0.0153 -5.96361,4.96297 c -3.27999,2.72963 -8.14085,7.90463 -10.80192,11.49998 -4.50704,6.08946 -8.3383,8.46312 -8.3383,5.16602 0,-1.90603 11.08997,-15.45146 15.80865,-19.3089 2.13945,-1.74896 8.12023,-5.73282 13.29063,-8.85303 13.12704,-7.92185 19.60412,-13.10479 22.45386,-17.9675 4.92586,-8.40535 2.20508,-13.16723 -6.98158,-12.21908 -5.78957,0.59754 -16.64359,5.24208 -21.28455,9.10788 -4.54927,3.78942 -17.75544,10.61166 -20.54155,10.61166 -1.42116,0 -5.42537,-0.72795 -8.89825,-1.61766 -7.93546,-2.03296 -17.83981,-1.45365 -23.34721,1.3656 -2.2,1.12618 -9.34676,5.4686 -15.8817,9.64983 -6.53493,4.18123 -12.72243,7.60223 -13.75,7.60223 -2.9365,0 -2.1848,-2.91929 1.23507,-4.79651 1.70686,-0.93692 8.09319,-4.9742 14.19186,-8.97172 6.09866,-3.99753 13.33382,-7.93503 16.07813,-8.75 6.52327,-1.93721 15.19682,-1.87849 23.64278,0.16005 9.39937,2.26867 9.98287,1.89711 9.98841,-6.36044 0.003,-3.72976 0.29557,-11.83188 0.65126,-18.00472 0.82384,-14.29721 7.9e-4,-14.95163 -8.68761,-6.9077 -7.65295,7.08528 -11.84719,9.5163 -26.9682,15.63104 -14.62419,5.91383 -18.95097,8.35824 -27.23607,15.38699 -8.47099,7.18646 -16.23282,12.03353 -25.88656,16.1655 -8.94836,3.83006 -12.20206,4.3387 -11.70069,1.82914 0.19079,-0.95501 3.96818,-3.18804 9.21538,-5.44775 10.83368,-4.66553 21.11116,-11.3667 29.10794,-18.97909 6.73387,-6.41018 9.28008,-7.84744 25.33491,-14.30081 14.54106,-5.8449 17.96742,-7.9436 27.66509,-16.94528 l 8,-7.42585 0.5,-7.89142 0.5,-7.89143 4.24547,-0.30728 c 3.04144,-0.22013 4.55376,-0.88333 5.33253,-2.33847 2.22774,-4.16257 8.16556,-9.77953 11.50228,-10.88075 2.93823,-0.9697 4.07828,-0.83311 7.70663,0.92334 l 4.25827,2.0614 4.89689,-2.47912 c 6.40419,-3.24221 9.46542,-3.12879 14.05793,0.52088 2.07626,1.65 4.85396,3 6.17269,3 3.59305,0 6.83091,2.57278 8.83723,7.022 l 1.79383,3.978 9.10427,0 9.10427,0 7.99386,-10.62649 c 9.58342,-12.73956 17.30522,-19.97568 26.43726,-24.77443 8.75293,-4.59954 22.93628,-8.41714 35.55659,-9.57043 5.5,-0.50261 20.32324,-2.96893 32.94053,-5.48071 21.53954,-4.28797 25.9486,-4.60462 24.17584,-1.73623 -0.76178,1.23259 -9.16355,3.08872 -37.11637,8.19977 -46.00859,8.41247 -53.26268,10.9364 -65.84218,22.90865 -6.77016,6.44335 -16.65782,19.20836 -16.65782,21.50533 0,1.21667 1.2667,1.52911 7.44672,1.56969 0.51025,0.003 1.054,0.005 1.63329,0.005 l 9.08001,0 8.82772,-7.4896 c 4.85525,-4.11928 10.25706,-9.29428 12.00402,-11.5 3.44952,-4.35537 6.00824,-5.1979 6.00824,-1.97837 0,3.17309 -14.18731,16.69431 -27,25.73235 -6.325,4.46165 -14.0693,9.92213 -17.20956,12.13441 -8.88367,6.25847 -12.64991,15.98495 -7.56793,19.54451 2.80654,1.96577 9.77174,2.00377 14.3797,0.0784 1.94589,-0.81304 7.21894,-4.25667 11.71788,-7.6525 8.79935,-6.6418 18.72672,-11.86718 22.54812,-11.86845 1.30252,-4.3e-4 6.11958,0.77139 10.70459,1.71517 7.00442,1.44179 9.24261,1.52588 14.00814,0.5263 6.1244,-1.28461 25.30048,-11.79486 32.51075,-17.81887 4.44617,-3.71466 5.40631,-4.04467 6.52088,-2.24125 1.52525,2.4679 -18.80779,16.6211 -31.11257,21.6565 -7.10705,2.90837 -16.71058,3.36798 -26.28574,1.25802 -4.77421,-1.05204 -6.87833,-1.11512 -8.75,-0.26233 l -2.46426,1.12283 0,17.96242 c 0,11.60637 0.37616,18.19491 1.06304,18.61942 0.58467,0.36135 3.84717,-2.00807 7.25,-5.26537 7.88266,-7.54554 13.08081,-10.5431 25.87831,-14.92297 14.13785,-4.8386 20.02776,-8.1789 29.8698,-16.93985 9.47334,-8.43275 19.21351,-14.59309 29.83197,-18.86774 5.47364,-2.20352 7.44177,-2.60814 8.33612,-1.71379 1.68948,1.68948 0.24009,2.80283 -8.71912,6.69755 -11.53824,5.01587 -17.73077,9.10304 -27.56369,18.19246 -9.9567,9.20385 -14.20872,11.65004 -29.79109,17.13879 -13.043,4.59428 -19.82297,8.92633 -28.70318,18.33982 l -6.70513,7.10779 0.59368,5.67998 c 0.70082,6.70506 -0.18885,8.01437 -5.44569,8.01437 -3.34471,0 -3.96665,0.44651 -6.39599,4.59187 -4.26154,7.27177 -13.60665,10.57082 -18.56663,6.55447 -2.25647,-1.82717 -2.34955,-1.81109 -6.51601,1.1257 -6.0315,4.2514 -11.6272,4.29483 -15.3581,0.11922 -1.78927,-2.00254 -4.07988,-3.29536 -6.54847,-3.69595 -4.25291,-0.69016 -8.05315,-3.73967 -8.90882,-7.14891 -0.47159,-1.87897 -1.46372,-2.37149 -5.8346,-2.89648 -12.07713,-1.45056 -13.17565,-1.17004 -18.0137,4.60008 -2.42107,2.8875 -7.1538,9.10754 -10.51717,13.82231 -8.31175,11.65141 -11.96212,13.99741 -33.23553,21.35962 -9.96279,3.44788 -16.51725,4.80085 -31.62425,6.52789 -7.95818,0.90978 -42.92985,7.2553 -47.54159,8.6263 -0.91622,0.27238 -1.97951,-0.0123 -2.36287,-0.63257 l 0,-1e-5 z M 297.17598,440.2848 c 2.78248,-2.59228 5.45992,-7.7402 4.68109,-9.00037 -0.85965,-1.39094 -11.85136,-1.20112 -13.28185,0.22937 -1.2649,1.2649 -1.67174,8.99493 -0.53333,10.13333 1.42213,1.42214 7.04558,0.58341 9.13409,-1.36233 z m 22.00038,-3.62386 c 3.5106,-3.93232 2.56318,-5.79075 -3.13783,-6.1551 -7.20941,-0.46076 -9.61113,2.58205 -6.0505,7.66555 2.01913,2.88273 5.8248,2.25712 9.18833,-1.51045 z m -37.00114,-1.54714 c 0.66,-0.66 1.2,-2.01 1.2,-3 0,-1.46667 -0.83333,-1.8 -4.5,-1.8 -3.79512,0 -4.5,0.3055 -4.5,1.95031 0,3.34031 5.35351,5.29618 7.8,2.84969 z m 48.99212,-30.8 c 0.29966,-22.05444 -0.10776,-28 -1.91871,-28 -0.56979,0 -4.71189,2.64534 -9.20469,5.87854 -10.21719,7.35269 -11.40673,7.95607 -18.13848,9.2005 -11.00712,2.03478 -16.97558,-1.87788 -16.83739,-11.03785 0.0857,-5.6839 1.20615,-7.94982 6.98645,-14.12942 l 4.40765,-4.71214 -4.79348,-0.55641 c -2.63641,-0.30603 -19.86847,-0.68844 -38.29347,-0.84982 l -33.5,-0.2934 -0.27307,17.75 c -0.18416,11.96991 0.0709,17.75 0.78324,17.75 0.58097,0 3.19808,-1.08531 5.81578,-2.4118 7.00303,-3.54871 15.90675,-5.89326 19.91202,-5.2433 15.23372,2.4721 12.48668,18.99211 -5.18157,31.1607 -4.78102,3.29281 -6.3451,4.96205 -5.3064,5.66314 0.42262,0.28526 70.50117,1.45736 83.25,1.3924 l 12,-0.0611 0.29212,-21.5 0,-4e-5 z m -117.40977,-4.55401 c 0.33971,-0.88526 0.61765,-11.26188 0.61765,-23.05916 0,-16.3423 0.30039,-21.56487 1.26159,-21.93372 0.69388,-0.26626 20.51408,-0.13964 44.04489,0.28139 23.53082,0.42102 43.5506,0.48684 44.48841,0.14627 2.37895,-0.86396 -15.24716,-1.73056 -57.29489,-2.81696 -32.73003,-0.84565 -36.11354,-0.7826 -37.25,0.69415 -0.91895,1.19412 -1.25,7.8857 -1.25,25.2665 0,13.00322 0.28417,23.92637 0.63148,24.27369 0.90954,0.90954 4.02512,-0.96089 4.75087,-2.85216 z m 38.64969,-54.69599 c 2.51943,-4.08868 2.18095,-6.78435 -1.08097,-8.60891 -2.25124,-1.25924 -2.97933,-1.22152 -6.23424,0.32304 -4.01438,1.90495 -8.24937,7.70571 -7.34546,10.06125 0.41232,1.0745 2.2064,1.47462 6.61194,1.47462 5.74376,0 6.14623,-0.16251 8.04873,-3.25 z m 13.49514,2.20602 c 0.95815,-1.55031 -2.29304,-5.95602 -4.39525,-5.95602 -2.4284,0 -5.52441,3.53483 -4.7846,5.46275 0.68288,1.77954 8.13733,2.1801 9.17985,0.49327 z m -33.52718,-4.34903 c 0,-4.61104 -0.96051,-5.60699 -5.40747,-5.60699 -3.18954,0 -9.622,7.63719 -7.89068,9.36852 0.34732,0.34731 3.48148,0.63148 6.96482,0.63148 l 6.33333,0 0,-4.39301 z"
           id="path4100" />
        <path
           transform="matrix(0.92572109,0.62855356,-0.62241821,0.93698229,337.64816,-6.7983624)"
           d="m 60.693213,335.1774 -8.881598,-3.72834 -6.151054,7.31703 0.84562,-9.50501 -8.915414,-3.65973 9.364784,-2.18072 0.662066,-9.61472 5.044613,8.22412 9.260645,-2.2162 -6.243754,7.24445 5.014092,8.11912 z"
           inkscape:randomized="0.004"
           inkscape:rounded="0"
           inkscape:flatsided="false"
           sodipodi:arg2="1.3369448"
           sodipodi:arg1="0.70862627"
           sodipodi:r2="4.9522123"
           sodipodi:r1="13.170778"
           sodipodi:cy="326.64789"
           sodipodi:cx="50.714287"
           sodipodi:sides="5"
           id="path4102"
           style="fill:#ffffff;fill-opacity:1;fill-rule:evenodd;stroke:none"
           sodipodi:type="star" />
        <path
           sodipodi:type="star"
           style="fill:#ffffff;fill-opacity:1;fill-rule:evenodd;stroke:none"
           id="path4104"
           sodipodi:sides="5"
           sodipodi:cx="50.714287"
           sodipodi:cy="326.64789"
           sodipodi:r1="13.170778"
           sodipodi:r2="4.9522123"
           sodipodi:arg1="0.70862627"
           sodipodi:arg2="1.3369448"
           inkscape:flatsided="false"
           inkscape:rounded="0"
           inkscape:randomized="0.004"
           d="m 60.693213,335.1774 -8.881598,-3.72834 -6.151054,7.31703 0.84562,-9.50501 -8.915414,-3.65973 9.364784,-2.18072 0.662066,-9.61472 5.044613,8.22412 9.260645,-2.2162 -6.243754,7.24445 5.014092,8.11912 z"
           transform="matrix(0.07484902,1.1164393,-1.1215336,0.08661786,569.0524,219.62019)" />
        <path
           transform="matrix(-0.76151995,0.81983319,-0.8318938,-0.75716114,551.17327,490.22651)"
           d="m 60.693213,335.1774 -8.881598,-3.72834 -6.151054,7.31703 0.84562,-9.50501 -8.915414,-3.65973 9.364784,-2.18072 0.662066,-9.61472 5.044613,8.22412 9.260645,-2.2162 -6.243754,7.24445 5.014092,8.11912 z"
           inkscape:randomized="0.004"
           inkscape:rounded="0"
           inkscape:flatsided="false"
           sodipodi:arg2="1.3369448"
           sodipodi:arg1="0.70862627"
           sodipodi:r2="4.9522123"
           sodipodi:r1="13.170778"
           sodipodi:cy="326.64789"
           sodipodi:cx="50.714287"
           sodipodi:sides="5"
           id="path4106"
           style="fill:#ffffff;fill-opacity:1;fill-rule:evenodd;stroke:none"
           sodipodi:type="star" />
        <path
           sodipodi:type="star"
           style="fill:#ffffff;fill-opacity:1;fill-rule:evenodd;stroke:none"
           id="path4108"
           sodipodi:sides="5"
           sodipodi:cx="50.714287"
           sodipodi:cy="326.64789"
           sodipodi:r1="13.170778"
           sodipodi:r2="4.9522123"
           sodipodi:arg1="0.70862627"
           sodipodi:arg2="1.3369448"
           inkscape:flatsided="false"
           inkscape:rounded="0"
           inkscape:randomized="0.004"
           d="m 60.693213,335.1774 -8.881598,-3.72834 -6.151054,7.31703 0.84562,-9.50501 -8.915414,-3.65973 9.364784,-2.18072 0.662066,-9.61472 5.044613,8.22412 9.260645,-2.2162 -6.243754,7.24445 5.014092,8.11912 z"
           transform="matrix(-0.43189228,1.0322345,-1.0420506,-0.4236399,638.87566,366.62449)" />
        <path
           transform="matrix(-1.0941007,0.23448421,-0.24686289,-1.0974511,448.61981,638.27032)"
           d="m 60.693213,335.1774 -8.881598,-3.72834 -6.151054,7.31703 0.84562,-9.50501 -8.915414,-3.65973 9.364784,-2.18072 0.662066,-9.61472 5.044613,8.22412 9.260645,-2.2162 -6.243754,7.24445 5.014092,8.11912 z"
           inkscape:randomized="0.004"
           inkscape:rounded="0"
           inkscape:flatsided="false"
           sodipodi:arg2="1.3369448"
           sodipodi:arg1="0.70862627"
           sodipodi:r2="4.9522123"
           sodipodi:r1="13.170778"
           sodipodi:cy="326.64789"
           sodipodi:cx="50.714287"
           sodipodi:sides="5"
           id="path4110"
           style="fill:#ffffff;fill-opacity:1;fill-rule:evenodd;stroke:none"
           sodipodi:type="star" />
        <path
           sodipodi:type="star"
           style="fill:#ffffff;fill-opacity:1;fill-rule:evenodd;stroke:none"
           id="path4112"
           sodipodi:sides="5"
           sodipodi:cx="50.714287"
           sodipodi:cy="326.64789"
           sodipodi:r1="13.170778"
           sodipodi:r2="4.9522123"
           sodipodi:arg1="0.70862627"
           sodipodi:arg2="1.3369448"
           inkscape:flatsided="false"
           inkscape:rounded="0"
           inkscape:randomized="0.004"
           d="m 60.693213,335.1774 -8.881598,-3.72834 -6.151054,7.31703 0.84562,-9.50501 -8.915414,-3.65973 9.364784,-2.18072 0.662066,-9.61472 5.044613,8.22412 9.260645,-2.2162 -6.243754,7.24445 5.014092,8.11912 z"
           transform="matrix(-0.64104333,0.91711642,-0.92845977,-0.6350612,500.49243,524.88803)" />
        <path
           transform="matrix(-0.7425137,0.83708571,-0.84904316,-0.73787938,534.56096,682.16345)"
           d="m 60.693213,335.1774 -8.881598,-3.72834 -6.151054,7.31703 0.84562,-9.50501 -8.915414,-3.65973 9.364784,-2.18072 0.662066,-9.61472 5.044613,8.22412 9.260645,-2.2162 -6.243754,7.24445 5.014092,8.11912 z"
           inkscape:randomized="0.004"
           inkscape:rounded="0"
           inkscape:flatsided="false"
           sodipodi:arg2="1.3369448"
           sodipodi:arg1="0.70862627"
           sodipodi:r2="4.9522123"
           sodipodi:r1="13.170778"
           sodipodi:cy="326.64789"
           sodipodi:cx="50.714287"
           sodipodi:sides="5"
           id="path4114"
           style="fill:#ffffff;fill-opacity:1;fill-rule:evenodd;stroke:none"
           sodipodi:type="star" />
        <path
           sodipodi:type="star"
           style="fill:#ffffff;fill-opacity:1;fill-rule:evenodd;stroke:none"
           id="path4116"
           sodipodi:sides="5"
           sodipodi:cx="50.714287"
           sodipodi:cy="326.64789"
           sodipodi:r1="13.170778"
           sodipodi:r2="4.9522123"
           sodipodi:arg1="0.70862627"
           sodipodi:arg2="1.3369448"
           inkscape:flatsided="false"
           inkscape:rounded="0"
           inkscape:randomized="0.004"
           d="m 60.693213,335.1774 -8.881598,-3.72834 -6.151054,7.31703 0.84562,-9.50501 -8.915414,-3.65973 9.364784,-2.18072 0.662066,-9.61472 5.044613,8.22412 9.260645,-2.2162 -6.243754,7.24445 5.014092,8.11912 z"
           transform="matrix(-0.98905082,0.5232758,-0.5360991,-0.98890749,481.86077,794.66334)" />
        <path
           transform="matrix(-1.1113653,0.13002418,-0.14203078,-1.1158708,399.45966,853.73889)"
           d="m 60.693213,335.1774 -8.881598,-3.72834 -6.151054,7.31703 0.84562,-9.50501 -8.915414,-3.65973 9.364784,-2.18072 0.662066,-9.61472 5.044613,8.22412 9.260645,-2.2162 -6.243754,7.24445 5.014092,8.11912 z"
           inkscape:randomized="0.004"
           inkscape:rounded="0"
           inkscape:flatsided="false"
           sodipodi:arg2="1.3369448"
           sodipodi:arg1="0.70862627"
           sodipodi:r2="4.9522123"
           sodipodi:r1="13.170778"
           sodipodi:cy="326.64789"
           sodipodi:cx="50.714287"
           sodipodi:sides="5"
           id="path4118"
           style="fill:#ffffff;fill-opacity:1;fill-rule:evenodd;stroke:none"
           sodipodi:type="star" />
        <path
           sodipodi:type="star"
           style="fill:#ffffff;fill-opacity:1;fill-rule:evenodd;stroke:none"
           id="path4120"
           sodipodi:sides="5"
           sodipodi:cx="50.714287"
           sodipodi:cy="326.64789"
           sodipodi:r1="13.170778"
           sodipodi:r2="4.9522123"
           sodipodi:arg1="0.70862627"
           sodipodi:arg2="1.3369448"
           inkscape:flatsided="false"
           inkscape:rounded="0"
           inkscape:randomized="0.004"
           d="m 60.693213,335.1774 -8.881598,-3.72834 -6.151054,7.31703 0.84562,-9.50501 -8.915414,-3.65973 9.364784,-2.18072 0.662066,-9.61472 5.044613,8.22412 9.260645,-2.2162 -6.243754,7.24445 5.014092,8.11912 z"
           transform="matrix(-0.58709211,0.95255548,-0.963535,-0.58046583,677.37811,616.37447)" />
        <path
           transform="matrix(-0.88552056,0.68402662,-0.6966383,-0.8831961,631.97015,704.43939)"
           d="m 60.693213,335.1774 -8.881598,-3.72834 -6.151054,7.31703 0.84562,-9.50501 -8.915414,-3.65973 9.364784,-2.18072 0.662066,-9.61472 5.044613,8.22412 9.260645,-2.2162 -6.243754,7.24445 5.014092,8.11912 z"
           inkscape:randomized="0.004"
           inkscape:rounded="0"
           inkscape:flatsided="false"
           sodipodi:arg2="1.3369448"
           sodipodi:arg1="0.70862627"
           sodipodi:r2="4.9522123"
           sodipodi:r1="13.170778"
           sodipodi:cy="326.64789"
           sodipodi:cx="50.714287"
           sodipodi:sides="5"
           id="path4122"
           style="fill:#ffffff;fill-opacity:1;fill-rule:evenodd;stroke:none"
           sodipodi:type="star" />
        <path
           sodipodi:type="star"
           style="fill:#ffffff;fill-opacity:1;fill-rule:evenodd;stroke:none"
           id="path4124"
           sodipodi:sides="5"
           sodipodi:cx="50.714287"
           sodipodi:cy="326.64789"
           sodipodi:r1="13.170778"
           sodipodi:r2="4.9522123"
           sodipodi:arg1="0.70862627"
           sodipodi:arg2="1.3369448"
           inkscape:flatsided="false"
           inkscape:rounded="0"
           inkscape:randomized="0.004"
           d="m 60.693213,335.1774 -8.881598,-3.72834 -6.151054,7.31703 0.84562,-9.50501 -8.915414,-3.65973 9.364784,-2.18072 0.662066,-9.61472 5.044613,8.22412 9.260645,-2.2162 -6.243754,7.24445 5.014092,8.11912 z"
           transform="matrix(-1.0857425,0.27055913,-0.2830419,-1.0886816,524.54273,757.50354)" />
        <path
           transform="matrix(-1.0517976,-0.0206314,0.02017036,-1.0282938,510.19012,794.81713)"
           d="m 361.42857,388.79074 c 0,70.61355 -55.9644,127.85714 -125,127.85714 -69.03559,0 -125,-57.24359 -125,-127.85714 0,-70.61355 55.96441,-127.85714 125,-127.85714 69.0356,0 125,57.24359 125,127.85714 z"
           sodipodi:ry="127.85714"
           sodipodi:rx="125"
           sodipodi:cy="388.79074"
           sodipodi:cx="236.42857"
           id="path4130"
           style="fill:#ffffff;fill-opacity:0;fill-rule:evenodd;stroke:none"
           sodipodi:type="arc" />
      </g>
    </g>
    <text
       xml:space="preserve"
       style="font-size:28.51139069px;font-style:normal;font-variant:normal;font-weight:normal;font-stretch:normal;text-align:center;line-height:120.00000477%;letter-spacing:0px;word-spacing:0px;writing-mode:lr-tb;text-anchor:middle;fill:#000000;fill-opacity:1;stroke:none;font-family:Oswald;-inkscape-font-specification:Oswald"
       x="-1212.7921"
       y="2685.5432"
       id="text4154"
       sodipodi:linespacing="120%"
       transform="scale(1.207837,0.8279263)"><tspan
         sodipodi:role="line"
         id="tspan4156"
         x="-1212.7921"
         y="2685.5432"
         style="font-size:95.0379715px;font-style:normal;font-variant:normal;font-weight:normal;font-stretch:normal;fill:#ffffff;font-family:Open Sans;-inkscape-font-specification:Open Sans">UBI INITIATIVE</tspan></text>
  </g>
</svg>
